<svg width="259" height="146" viewBox="0 0 259 146" fill="none" xmlns="http://www.w3.org/2000/svg">
<path d="M228.905 104.548C207.243 124.599 143.448 139.788 122.656 106.298C111.43 88.2153 100.784 78.6182 93.1332 76.4389C85.4828 74.2596 68.4893 79.1949 69.7657 89.5421C70.1956 93.0274 75.2369 94.4955 79.152 98.8889C86.86 107.539 85.4207 128.994 81.0888 133.003C79.1595 134.789 55.4481 125.377 52.171 98.8102C32.7185 111.43 15.6979 111.543 9.90521 106.011C7.99088 104.183 11.9188 94.2493 24.1316 83.2471C34.7821 73.6524 35.4594 80.7142 42.4926 75.588C45.42 73.4543 40.5263 59.6478 56.6229 47.4415C72.7195 35.2352 96.7397 29.7336 98.1026 29.2649C116.195 23.0433 171.364 7.46889 191.063 6.87702C207.079 6.39579 226.1 4.80641 236.006 14.8088C258.057 37.0726 255.7 79.7457 228.905 104.548Z" fill="#C5C8E8"/>
<path d="M171.975 50.766C199.161 45.7093 231.799 27.2039 234.632 33.9521C237.465 40.7003 201.28 53.6811 172.241 57.5471C143.202 61.4131 126.944 53.7655 129.199 49.2287C131.454 44.692 144.789 55.8227 171.975 50.766Z" fill="#9FA4D9"/>
<path d="M164.652 67.1001L177.121 75.4087" stroke="#9FA4D9" stroke-width="4" stroke-linecap="round"/>
<path d="M176.514 66.3079L165.261 76.2012" stroke="#9FA4D9" stroke-width="4" stroke-linecap="round"/>
<path d="M206.399 57.4043L218.868 65.7129" stroke="#9FA4D9" stroke-width="4" stroke-linecap="round"/>
<path d="M218.26 56.6121L207.007 66.5054" stroke="#9FA4D9" stroke-width="4" stroke-linecap="round"/>
</svg>
