<svg width="1920" height="410" viewBox="0 0 1920 410" fill="none" xmlns="http://www.w3.org/2000/svg">
<path d="M-142.85 56.8823C-34.9896 154.572 10.3704 115.232 81.6204 81.4423C115.8 65.2323 197.1 60.6423 232.4 68.7323C259.27 74.8923 302.41 117.362 329.81 120.402C410.46 129.362 469.13 64.2623 549.1 50.4723C576.02 45.8323 698.28 41.4423 740.63 61.1123C784.45 81.4623 832.91 114.742 869.48 120.122C916.66 127.072 1019.12 106.552 1059.97 85.6323C1102.89 63.6523 1212.44 38.8023 1264.39 83.8323C1293.71 109.252 1397.66 140.072 1435.68 113.722C1463.42 94.4923 1514.03 59.1023 1543.35 53.1123C1557.9 50.1323 1592.76 45.0223 1614.88 57.6323C1632.58 67.7223 1652.23 83.4523 1669 90.7623C1713.17 110.022 1869.42 50.5823 1910.5 37.0002C1951.58 23.4181 1912.67 97.5423 1973.65 83.2323" stroke="#D6D9F9" stroke-width="4" stroke-miterlimit="10"/>
<path d="M1972.5 71.5C1915.01 90.08 1911.01 104.252 1887.91 120.242C1867.3 134.512 1833.46 144.292 1794.27 150.482C1753.32 156.952 1708.28 161.652 1679.51 152.692C1663.61 147.742 1645.66 136.682 1628.36 129.172C1626.68 128.442 1625.03 127.722 1623.38 127.062C1600.59 117.792 1567.88 123.632 1551.83 127.712C1520.91 135.562 1472.73 167.512 1441.53 184.342C1399.1 207.362 1300.39 176.352 1260.64 150.502C1242.04 138.412 1219.26 131.072 1194.22 128.702C1137.76 123.442 1077.01 141.772 1045.15 157.712C1033.04 163.722 1018.7 169.432 1003.56 173.572C955.479 186.712 882.089 191.062 845.509 183.262C808.929 175.462 760.719 147.142 714.579 132.082C698.969 126.982 675.669 124.892 650.619 124.312C603.459 123.232 546.379 128.602 523.569 130.832C516.959 131.482 510.489 132.562 504.139 133.762C461.209 141.852 419.309 159.802 377.379 170.852C354.179 177.262 329.529 181.772 302.969 180.562C282.359 179.622 255.699 164.142 232.669 152.562C222.289 147.352 212.209 142.932 203.269 141.222C166.139 134.062 88.7794 133.952 52.1894 147.952C-13.8806 173.242 -49.5506 213.612 -148.891 131.072" stroke="#D6D9F9" stroke-width="4" stroke-miterlimit="10"/>
<path d="M2005.57 249.882C1955.08 277.012 1934.36 258.112 1911.87 272.582C1885.32 289.662 1857.75 290.022 1816.15 286.132C1782.31 282.962 1740.13 281.862 1700.52 276.572C1683.66 274.322 1664.91 268.942 1645.67 266.572C1643.89 266.352 1642.13 266.122 1640.38 265.932C1616.24 263.352 1587.81 270.562 1568.79 276.902C1534.63 288.302 1491.36 313.532 1453.23 325.572C1401.99 341.942 1315.34 308.852 1253.15 283.822C1230.86 274.852 1205.68 268.322 1178.22 266.422C1112.93 262.042 1052.23 284.172 1015.53 301.842C999.34 309.572 983.88 316.402 970.06 319.462C922.41 329.992 836.2 322.842 797.59 309.512C764.16 297.972 712.99 278.962 662.49 273.982C644.33 272.192 621.76 273.412 598.46 275.962C557.99 280.392 505.57 291.682 472.52 291.522C465.93 291.492 459.43 291.552 453.01 291.522C414.77 291.332 366.73 291.002 324.23 293.302C301.37 295.232 275.75 299.002 249.31 300.842C225.23 302.522 198.05 297.472 175.7 292.252C165.6 289.902 155.18 287.462 145.04 286.182C104.23 280.892 35.5703 272.242 -6.62968 280.962C-60.6697 292.132 -78.6397 331.672 -160.93 279.462" stroke="#D6D9F9" stroke-width="4" stroke-miterlimit="10"/>
<path d="M2032.15 388.752C1924.29 486.442 1914.73 489.462 1843.49 455.672C1809.31 439.462 1752.85 420.942 1667.3 438.292C1594.93 452.972 1544.41 492.202 1467.85 502.092C1387.37 512.492 1292.77 444.352 1158.22 438.562C1043.87 433.642 964.75 496.422 928.18 501.812C881 508.762 778.54 488.242 737.69 467.322C694.77 445.342 609.46 440.512 533.27 465.522C496.4 477.632 440.76 503.182 389.09 488.702C356.59 479.592 301 454.992 257.8 446.352C211.21 438.732 145.99 461.602 104.48 466.852C56.67 472.902 -17.71 449.992 -80.18 447.202C-118.47 445.492 -115.02 479.232 -176 464.922" stroke="#D6D9F9" stroke-width="4" stroke-miterlimit="10"/>
<path d="M390.25 95.9822L360.605 78.8672L280.195 218.141L309.84 235.256L390.25 95.9822Z" fill="white"/>
<path d="M377.88 135.722L320.094 148.989L338.29 228.247L396.077 214.981L377.88 135.722Z" fill="white"/>
<path d="M409.488 234.477L146.168 294.931L164.364 374.189L427.684 313.735L409.488 234.477Z" fill="white"/>
<path d="M671.112 1.49783L633.492 0L630.257 81.2556L667.877 82.7535L671.112 1.49783Z" fill="white"/>
<path d="M690.777 181.452L606.438 175.722L609.677 94.4619L694.017 100.202L690.777 181.452Z" fill="white"/>
<path d="M709.176 224.159L592.219 219.502L588.984 300.758L705.941 305.414L709.176 224.159Z" fill="white"/>
<path d="M751.077 405.844L558.609 398.181L555.374 479.436L747.842 487.099L751.077 405.844Z" fill="white"/>
<path d="M1230.09 42.9234L1183.01 41.0488L1179.77 122.304L1226.86 124.179L1230.09 42.9234Z" fill="white"/>
<path d="M1246.52 100.182L1162.09 96.8208L1158.85 178.076L1243.28 181.438L1246.52 100.182Z" fill="white"/>
<path d="M1298.7 252.26L1031.26 213.913L1019.72 294.41L1287.15 332.757L1298.7 252.26Z" fill="white"/>
<path d="M1252.96 412.992L985.523 374.645L969.746 484.679L1237.18 523.027L1252.96 412.992Z" fill="white"/>
<path d="M1536.76 107.883L1583.84 106.009L1580.61 24.7532L1533.53 26.6278L1536.76 107.883Z" fill="white"/>
<path d="M1566.07 172.726L1650.5 169.364L1647.27 88.1086L1562.84 91.4703L1566.07 172.726Z" fill="white"/>
<path d="M1540.65 332.74L1808.09 294.393L1796.54 213.896L1529.11 252.243L1540.65 332.74Z" fill="white"/>
<path d="M1590.83 514.309L1858.26 475.961L1842.48 365.927L1575.05 404.274L1590.83 514.309Z" fill="white"/>
</svg>
