<svg width="1920" height="186" viewBox="0 0 1920 186" fill="none" xmlns="http://www.w3.org/2000/svg">
<mask id="mask0_5736_686" style="mask-type:luminance" maskUnits="userSpaceOnUse" x="0" y="0" width="1920" height="186">
<path d="M1920 0H0V186H1920V0Z" fill="white"/>
</mask>
<g mask="url(#mask0_5736_686)">
<mask id="mask1_5736_686" style="mask-type:luminance" maskUnits="userSpaceOnUse" x="1675" y="-5" width="420" height="473">
<path d="M2094.86 -4.97021H1675.89V467.06H2094.86V-4.97021Z" fill="white"/>
</mask>
<g mask="url(#mask1_5736_686)">
<path d="M1718.19 172.719C1768.4 156.979 1804.39 169.459 1827.62 193.019" stroke="#FBE6B1" stroke-width="4" stroke-miterlimit="10"/>
<path d="M1860.18 166.299C1899.9 166.299 1926.42 134.699 1984.2 147.119C2026.13 156.129 2055.75 181.219 2094.72 178.389" stroke="#FBE6B1" stroke-width="4" stroke-miterlimit="10"/>
<path d="M1787.9 119.379C1811.97 119.639 1827.78 106.969 1884.25 141.329" stroke="#FBE6B1" stroke-width="4" stroke-miterlimit="10"/>
<path d="M1698.3 124.819C1711.19 122.279 1723.12 122.279 1732.94 134.369" stroke="#FBE6B1" stroke-width="4" stroke-miterlimit="10"/>
<path d="M1886.33 10.1397C1983.06 -41.8103 2013.2 29.3397 2098.66 27.0797C2136.02 26.0897 2172.8 -62.1403 2272.19 -15.2903" stroke="#FBE6B1" stroke-width="4" stroke-miterlimit="10"/>
<path d="M1920.68 24.5598C1934.23 13.2898 1951.74 13.2898 1964.16 17.8598" stroke="#FBE6B1" stroke-width="4" stroke-miterlimit="10"/>
<path d="M1899.5 74.5796C1937.65 61.5096 1963.34 99.0996 1985.34 91.4496" stroke="#FBE6B1" stroke-width="4" stroke-miterlimit="10"/>
<path d="M1467.35 10.1397C1564.08 -41.8103 1594.22 29.3397 1679.68 27.0797C1717.04 26.0897 1753.82 -62.1403 1853.21 -15.2903" stroke="#FBE6B1" stroke-width="4" stroke-miterlimit="10"/>
<path d="M1773.59 25.2198C1784.58 16.9398 1793.73 10.5397 1813.87 16.9397" stroke="#FBE6B1" stroke-width="4" stroke-miterlimit="10"/>
<path d="M1578.41 61.3395C1631.28 53.3295 1640.71 84.2594 1696.22 84.3794C1754.34 84.5094 1729.37 31.0094 1836.67 80.1394" stroke="#FBE6B1" stroke-width="4" stroke-miterlimit="10"/>
<path d="M1829.87 49.7498C1842.91 42.1798 1862.81 50.4998 1873.82 63.9198" stroke="#FBE6B1" stroke-width="4" stroke-miterlimit="10"/>
<path d="M1760.65 88.32C1776.58 80.77 1793.53 85.1199 1804.43 92.6299" stroke="#FBE6B1" stroke-width="4" stroke-miterlimit="10"/>
</g>
<mask id="mask2_5736_686" style="mask-type:luminance" maskUnits="userSpaceOnUse" x="1256" y="-5" width="420" height="473">
<path d="M1675.89 -4.97021H1256.92V467.06H1675.89V-4.97021Z" fill="white"/>
</mask>
<g mask="url(#mask2_5736_686)">
<path d="M1299.22 172.719C1349.43 156.979 1385.42 169.459 1408.65 193.019" stroke="#FBE6B1" stroke-width="4" stroke-miterlimit="10"/>
<path d="M1441.21 166.299C1480.93 166.299 1507.45 134.699 1565.23 147.119C1607.16 156.129 1636.78 181.219 1675.75 178.389" stroke="#FBE6B1" stroke-width="4" stroke-miterlimit="10"/>
<path d="M1368.93 119.379C1393 119.639 1408.81 106.969 1465.28 141.329" stroke="#FBE6B1" stroke-width="4" stroke-miterlimit="10"/>
<path d="M1544.71 117.309C1579.35 108.729 1630.92 125.289 1664.05 153.149" stroke="#FBE6B1" stroke-width="4" stroke-miterlimit="10"/>
<path d="M1279.33 124.819C1292.22 122.279 1304.15 122.279 1313.97 134.369" stroke="#FBE6B1" stroke-width="4" stroke-miterlimit="10"/>
<path d="M1467.35 10.1397C1564.08 -41.8103 1594.22 29.3397 1679.68 27.0797C1717.04 26.0897 1753.82 -62.1403 1853.21 -15.2903" stroke="#FBE6B1" stroke-width="4" stroke-miterlimit="10"/>
<path d="M1501.71 24.5598C1515.26 13.2898 1532.77 13.2898 1545.19 17.8598" stroke="#FBE6B1" stroke-width="4" stroke-miterlimit="10"/>
<path d="M1578.41 61.3395C1631.28 53.3295 1640.71 84.2594 1696.22 84.3794C1754.34 84.5094 1729.37 31.0094 1836.67 80.1394" stroke="#FBE6B1" stroke-width="4" stroke-miterlimit="10"/>
<path d="M1480.53 74.5796C1518.68 61.5096 1544.37 99.0996 1566.37 91.4496" stroke="#FBE6B1" stroke-width="4" stroke-miterlimit="10"/>
<path d="M1048.38 10.1397C1145.11 -41.8103 1175.25 29.3397 1260.71 27.0797C1298.07 26.0897 1334.85 -62.1403 1434.24 -15.2903" stroke="#FBE6B1" stroke-width="4" stroke-miterlimit="10"/>
<path d="M1354.62 25.2198C1365.61 16.9398 1374.76 10.5397 1394.9 16.9397" stroke="#FBE6B1" stroke-width="4" stroke-miterlimit="10"/>
<path d="M1159.44 61.3395C1212.31 53.3295 1221.74 84.2594 1277.25 84.3794C1335.37 84.5094 1310.4 31.0094 1417.7 80.1394" stroke="#FBE6B1" stroke-width="4" stroke-miterlimit="10"/>
<path d="M1410.9 49.7498C1423.94 42.1798 1443.84 50.4998 1454.85 63.9198" stroke="#FBE6B1" stroke-width="4" stroke-miterlimit="10"/>
<path d="M1341.67 88.32C1357.6 80.77 1374.55 85.1199 1385.45 92.6299" stroke="#FBE6B1" stroke-width="4" stroke-miterlimit="10"/>
</g>
<mask id="mask3_5736_686" style="mask-type:luminance" maskUnits="userSpaceOnUse" x="837" y="-5" width="420" height="473">
<path d="M1256.92 -4.97021H837.949V467.06H1256.92V-4.97021Z" fill="white"/>
</mask>
<g mask="url(#mask3_5736_686)">
<path d="M880.24 172.719C930.45 156.979 966.44 169.459 989.67 193.019" stroke="#FBE6B1" stroke-width="4" stroke-miterlimit="10"/>
<path d="M1022.24 166.299C1061.96 166.299 1088.48 134.699 1146.26 147.119C1188.19 156.129 1217.81 181.219 1256.78 178.389" stroke="#FBE6B1" stroke-width="4" stroke-miterlimit="10"/>
<path d="M949.951 119.379C974.021 119.639 989.831 106.969 1046.3 141.329" stroke="#FBE6B1" stroke-width="4" stroke-miterlimit="10"/>
<path d="M1125.74 117.309C1160.38 108.729 1211.95 125.289 1245.08 153.149" stroke="#FBE6B1" stroke-width="4" stroke-miterlimit="10"/>
<path d="M860.352 124.819C873.242 122.279 885.172 122.279 894.992 134.369" stroke="#FBE6B1" stroke-width="4" stroke-miterlimit="10"/>
<path d="M1048.38 10.1397C1145.11 -41.8103 1175.25 29.3397 1260.71 27.0797C1298.07 26.0897 1334.85 -62.1403 1434.24 -15.2903" stroke="#FBE6B1" stroke-width="4" stroke-miterlimit="10"/>
<path d="M1082.73 24.5598C1096.28 13.2898 1113.79 13.2898 1126.21 17.8598" stroke="#FBE6B1" stroke-width="4" stroke-miterlimit="10"/>
<path d="M1159.44 61.3395C1212.31 53.3295 1221.74 84.2594 1277.25 84.3794C1335.37 84.5094 1310.4 31.0094 1417.7 80.1394" stroke="#FBE6B1" stroke-width="4" stroke-miterlimit="10"/>
<path d="M1061.56 74.5796C1099.71 61.5096 1125.4 99.0996 1147.4 91.4496" stroke="#FBE6B1" stroke-width="4" stroke-miterlimit="10"/>
<path d="M629.41 10.1397C726.14 -41.8103 756.28 29.3397 841.74 27.0797C879.1 26.0897 915.88 -62.1403 1015.27 -15.2903" stroke="#FBE6B1" stroke-width="4" stroke-miterlimit="10"/>
<path d="M935.641 25.2198C946.631 16.9398 955.781 10.5397 975.921 16.9397" stroke="#FBE6B1" stroke-width="4" stroke-miterlimit="10"/>
<path d="M740.471 61.3395C793.341 53.3295 802.771 84.2594 858.281 84.3794C916.401 84.5094 891.431 31.0094 998.731 80.1394" stroke="#FBE6B1" stroke-width="4" stroke-miterlimit="10"/>
<path d="M991.93 49.7498C1004.97 42.1798 1024.87 50.4998 1035.88 63.9198" stroke="#FBE6B1" stroke-width="4" stroke-miterlimit="10"/>
<path d="M922.699 88.32C938.629 80.77 955.579 85.1199 966.479 92.6299" stroke="#FBE6B1" stroke-width="4" stroke-miterlimit="10"/>
</g>
<mask id="mask4_5736_686" style="mask-type:luminance" maskUnits="userSpaceOnUse" x="418" y="-5" width="420" height="473">
<path d="M837.951 -4.97021H418.98V467.06H837.951V-4.97021Z" fill="white"/>
</mask>
<g mask="url(#mask4_5736_686)">
<path d="M461.271 172.719C511.481 156.979 547.471 169.459 570.701 193.019" stroke="#FBE6B1" stroke-width="4" stroke-miterlimit="10"/>
<path d="M603.262 166.299C642.982 166.299 669.502 134.699 727.282 147.119C769.212 156.129 798.832 181.219 837.802 178.389" stroke="#FBE6B1" stroke-width="4" stroke-miterlimit="10"/>
<path d="M530.982 119.379C555.052 119.639 570.862 106.969 627.332 141.329" stroke="#FBE6B1" stroke-width="4" stroke-miterlimit="10"/>
<path d="M706.771 117.309C741.411 108.729 792.982 125.289 826.112 153.149" stroke="#FBE6B1" stroke-width="4" stroke-miterlimit="10"/>
<path d="M441.383 124.819C454.273 122.279 466.203 122.279 476.023 134.369" stroke="#FBE6B1" stroke-width="4" stroke-miterlimit="10"/>
<path d="M629.412 10.1397C726.142 -41.8103 756.282 29.3397 841.742 27.0797C879.102 26.0897 915.882 -62.1403 1015.27 -15.2903" stroke="#FBE6B1" stroke-width="4" stroke-miterlimit="10"/>
<path d="M663.762 24.5598C677.312 13.2898 694.822 13.2898 707.242 17.8598" stroke="#FBE6B1" stroke-width="4" stroke-miterlimit="10"/>
<path d="M740.473 61.3395C793.343 53.3295 802.773 84.2594 858.283 84.3794C916.403 84.5094 891.433 31.0094 998.733 80.1394" stroke="#FBE6B1" stroke-width="4" stroke-miterlimit="10"/>
<path d="M642.582 74.5796C680.732 61.5096 706.422 99.0996 728.422 91.4496" stroke="#FBE6B1" stroke-width="4" stroke-miterlimit="10"/>
<path d="M210.441 10.1397C307.171 -41.8103 337.311 29.3397 422.771 27.0797C460.131 26.0897 496.911 -62.1403 596.301 -15.2903" stroke="#FBE6B1" stroke-width="4" stroke-miterlimit="10"/>
<path d="M516.672 25.2198C527.662 16.9398 536.812 10.5397 556.952 16.9397" stroke="#FBE6B1" stroke-width="4" stroke-miterlimit="10"/>
<path d="M321.492 61.3395C374.362 53.3295 383.792 84.2594 439.302 84.3794C497.422 84.5094 472.452 31.0094 579.752 80.1394" stroke="#FBE6B1" stroke-width="4" stroke-miterlimit="10"/>
<path d="M572.951 49.7498C585.991 42.1798 605.891 50.4998 616.901 63.9198" stroke="#FBE6B1" stroke-width="4" stroke-miterlimit="10"/>
<path d="M503.73 88.32C519.66 80.77 536.61 85.1199 547.51 92.6299" stroke="#FBE6B1" stroke-width="4" stroke-miterlimit="10"/>
</g>
<mask id="mask5_5736_686" style="mask-type:luminance" maskUnits="userSpaceOnUse" x="0" y="-5" width="419" height="473">
<path d="M418.97 -4.97021H0V467.06H418.97V-4.97021Z" fill="white"/>
</mask>
<g mask="url(#mask5_5736_686)">
<path d="M42.3008 172.719C92.5108 156.979 128.501 169.459 151.731 193.019" stroke="#FBE6B1" stroke-width="4" stroke-miterlimit="10"/>
<path d="M184.291 166.299C224.011 166.299 250.531 134.699 308.311 147.119C350.241 156.129 379.861 181.219 418.831 178.389" stroke="#FBE6B1" stroke-width="4" stroke-miterlimit="10"/>
<path d="M112.012 119.379C136.082 119.639 151.892 106.969 208.362 141.329" stroke="#FBE6B1" stroke-width="4" stroke-miterlimit="10"/>
<path d="M287.801 117.309C322.441 108.729 374.011 125.289 407.141 153.149" stroke="#FBE6B1" stroke-width="4" stroke-miterlimit="10"/>
<path d="M22.4121 124.819C35.3021 122.279 47.2321 122.279 57.0521 134.369" stroke="#FBE6B1" stroke-width="4" stroke-miterlimit="10"/>
<path d="M210.441 10.1397C307.171 -41.8103 337.311 29.3397 422.771 27.0797C460.131 26.0897 496.911 -62.1403 596.301 -15.2903" stroke="#FBE6B1" stroke-width="4" stroke-miterlimit="10"/>
<path d="M244.791 24.5598C258.341 13.2898 275.851 13.2898 288.271 17.8598" stroke="#FBE6B1" stroke-width="4" stroke-miterlimit="10"/>
<path d="M321.492 61.3395C374.362 53.3295 383.792 84.2594 439.302 84.3794C497.422 84.5094 472.452 31.0094 579.752 80.1394" stroke="#FBE6B1" stroke-width="4" stroke-miterlimit="10"/>
<path d="M223.611 74.5796C261.761 61.5096 287.451 99.0996 309.451 91.4496" stroke="#FBE6B1" stroke-width="4" stroke-miterlimit="10"/>
<path d="M-208.539 10.1397C-111.809 -41.8103 -81.6691 29.3397 3.79094 27.0797C41.1509 26.0897 77.931 -62.1403 177.321 -15.2903" stroke="#FBE6B1" stroke-width="4" stroke-miterlimit="10"/>
<path d="M97.7012 25.2198C108.691 16.9398 117.841 10.5397 137.981 16.9397" stroke="#FBE6B1" stroke-width="4" stroke-miterlimit="10"/>
<path d="M-97.4785 61.3395C-44.6085 53.3295 -35.1785 84.2594 20.3315 84.3794C78.4515 84.5094 53.4815 31.0094 160.781 80.1394" stroke="#FBE6B1" stroke-width="4" stroke-miterlimit="10"/>
<path d="M153.98 49.7498C167.02 42.1798 186.92 50.4998 197.93 63.9198" stroke="#FBE6B1" stroke-width="4" stroke-miterlimit="10"/>
<path d="M84.7617 88.32C100.692 80.77 117.642 85.1199 128.542 92.6299" stroke="#FBE6B1" stroke-width="4" stroke-miterlimit="10"/>
</g>
</g>
</svg>
