<svg width="1920" height="417" viewBox="0 0 1920 417" fill="none" xmlns="http://www.w3.org/2000/svg">
<mask id="mask0_5736_685" style="mask-type:luminance" maskUnits="userSpaceOnUse" x="0" y="0" width="1920" height="417">
<path d="M1920 0H0V417H1920V0Z" fill="white"/>
</mask>
<g mask="url(#mask0_5736_685)">
<mask id="mask1_5736_685" style="mask-type:luminance" maskUnits="userSpaceOnUse" x="1675" y="-191" width="420" height="473">
<path d="M2094.86 -190.97H1675.89V281.06H2094.86V-190.97Z" fill="white"/>
</mask>
<g mask="url(#mask1_5736_685)">
<path d="M1886.33 296.17C1983.06 244.22 2013.2 315.37 2098.66 313.11C2136.02 312.12 2172.8 223.89 2272.19 270.74" stroke="#FBE6B1" stroke-width="4" stroke-miterlimit="10"/>
<path d="M1907.03 264.44C1943.74 241.94 1971.31 246.92 2003.03 252.02" stroke="#FBE6B1" stroke-width="4" stroke-miterlimit="10"/>
<path d="M1907.78 174.84C1920.67 172.3 1932.6 172.3 1942.42 184.39" stroke="#FBE6B1" stroke-width="4" stroke-miterlimit="10"/>
<path d="M1641.45 269.61C1667.17 241 1707.54 240.28 1725.03 244.21" stroke="#FBE6B1" stroke-width="4" stroke-miterlimit="10"/>
<path d="M1467.35 296.17C1564.08 244.22 1594.22 315.37 1679.68 313.11C1717.04 312.12 1753.82 223.89 1853.21 270.74" stroke="#FBE6B1" stroke-width="4" stroke-miterlimit="10"/>
<path d="M1650.69 216.31C1690.41 216.31 1716.93 184.71 1774.71 197.13C1816.64 206.14 1846.26 231.23 1885.23 228.4" stroke="#FBE6B1" stroke-width="4" stroke-miterlimit="10"/>
<path d="M1754.2 167.33C1788.84 158.75 1840.41 175.31 1873.54 203.17" stroke="#FBE6B1" stroke-width="4" stroke-miterlimit="10"/>
<path d="M1850.93 33.5995C1876.65 4.98953 1917.02 4.26951 1934.51 8.19951" stroke="#FBE6B1" stroke-width="4" stroke-miterlimit="10"/>
<path d="M1676.84 60.1494C1773.57 8.19942 1803.71 79.3495 1889.17 77.0895C1926.53 76.0995 1963.31 -12.1305 2062.7 34.7195" stroke="#FBE6B1" stroke-width="4" stroke-miterlimit="10"/>
<path d="M1697.55 28.4195C1734.26 5.9195 1761.83 10.8995 1793.55 15.9995" stroke="#FBE6B1" stroke-width="4" stroke-miterlimit="10"/>
<path d="M1718.19 -13.2805C1768.4 -29.0205 1804.39 -16.5406 1827.62 7.01938" stroke="#FBE6B1" stroke-width="4" stroke-miterlimit="10"/>
<path d="M1711.19 74.5695C1724.74 63.2995 1742.25 63.2996 1754.67 67.8696" stroke="#FBE6B1" stroke-width="4" stroke-miterlimit="10"/>
<path d="M1787.9 111.349C1840.77 103.339 1850.2 134.269 1905.71 134.389C1963.83 134.519 1938.86 81.0192 2046.16 130.149" stroke="#FBE6B1" stroke-width="4" stroke-miterlimit="10"/>
<path d="M1690.02 124.589C1728.17 111.519 1753.86 149.109 1775.86 141.459" stroke="#FBE6B1" stroke-width="4" stroke-miterlimit="10"/>
</g>
<mask id="mask2_5736_685" style="mask-type:luminance" maskUnits="userSpaceOnUse" x="1675" y="281" width="420" height="473">
<path d="M2094.86 281.06H1675.89V753.09H2094.86V281.06Z" fill="white"/>
</mask>
<g mask="url(#mask2_5736_685)">
<path d="M1787.9 405.41C1811.97 405.67 1827.78 393 1884.25 427.36" stroke="#FBE6B1" stroke-width="4" stroke-miterlimit="10"/>
<path d="M1698.3 410.85C1711.19 408.31 1723.12 408.31 1732.94 420.4" stroke="#FBE6B1" stroke-width="4" stroke-miterlimit="10"/>
<path d="M1886.33 296.17C1983.06 244.22 2013.2 315.37 2098.66 313.11C2136.02 312.12 2172.8 223.89 2272.19 270.74" stroke="#FBE6B1" stroke-width="4" stroke-miterlimit="10"/>
<path d="M1920.68 310.59C1934.23 299.32 1951.74 299.32 1964.16 303.89" stroke="#FBE6B1" stroke-width="4" stroke-miterlimit="10"/>
<path d="M1899.5 360.61C1937.65 347.54 1963.34 385.13 1985.34 377.48" stroke="#FBE6B1" stroke-width="4" stroke-miterlimit="10"/>
<path d="M1467.35 296.17C1564.08 244.22 1594.22 315.37 1679.68 313.11C1717.04 312.12 1753.82 223.89 1853.21 270.74" stroke="#FBE6B1" stroke-width="4" stroke-miterlimit="10"/>
<path d="M1773.59 311.25C1784.58 302.97 1793.73 296.57 1813.87 302.97" stroke="#FBE6B1" stroke-width="4" stroke-miterlimit="10"/>
<path d="M1578.41 347.37C1631.28 339.36 1640.71 370.29 1696.22 370.41C1754.34 370.54 1729.37 317.04 1836.67 366.17" stroke="#FBE6B1" stroke-width="4" stroke-miterlimit="10"/>
<path d="M1829.87 335.78C1842.91 328.21 1862.81 336.53 1873.82 349.95" stroke="#FBE6B1" stroke-width="4" stroke-miterlimit="10"/>
<path d="M1760.65 374.35C1776.58 366.8 1793.53 371.15 1804.43 378.66" stroke="#FBE6B1" stroke-width="4" stroke-miterlimit="10"/>
</g>
<mask id="mask3_5736_685" style="mask-type:luminance" maskUnits="userSpaceOnUse" x="1256" y="-191" width="420" height="473">
<path d="M1675.89 -190.97H1256.92V281.06H1675.89V-190.97Z" fill="white"/>
</mask>
<g mask="url(#mask3_5736_685)">
<path d="M1641.45 269.61C1667.17 241 1707.54 240.28 1725.03 244.21" stroke="#FBE6B1" stroke-width="4" stroke-miterlimit="10"/>
<path d="M1467.35 296.17C1564.08 244.22 1594.22 315.37 1679.68 313.11C1717.04 312.12 1753.82 223.89 1853.21 270.74" stroke="#FBE6B1" stroke-width="4" stroke-miterlimit="10"/>
<path d="M1488.06 264.44C1524.77 241.94 1552.34 246.92 1584.06 252.02" stroke="#FBE6B1" stroke-width="4" stroke-miterlimit="10"/>
<path d="M1508.7 222.74C1558.91 207 1594.9 219.48 1618.13 243.04" stroke="#FBE6B1" stroke-width="4" stroke-miterlimit="10"/>
<path d="M1650.69 216.31C1690.41 216.31 1716.93 184.71 1774.71 197.13C1816.64 206.14 1846.26 231.23 1885.23 228.4" stroke="#FBE6B1" stroke-width="4" stroke-miterlimit="10"/>
<path d="M1578.41 169.4C1602.48 169.66 1618.29 156.99 1674.76 191.35" stroke="#FBE6B1" stroke-width="4" stroke-miterlimit="10"/>
<path d="M1488.81 174.84C1501.7 172.3 1513.63 172.3 1523.45 184.39" stroke="#FBE6B1" stroke-width="4" stroke-miterlimit="10"/>
<path d="M1222.48 269.61C1248.2 241 1288.57 240.28 1306.06 244.21" stroke="#FBE6B1" stroke-width="4" stroke-miterlimit="10"/>
<path d="M1048.38 296.17C1145.11 244.22 1175.25 315.37 1260.71 313.11C1298.07 312.12 1334.85 223.89 1434.24 270.74" stroke="#FBE6B1" stroke-width="4" stroke-miterlimit="10"/>
<path d="M1231.72 216.31C1271.44 216.31 1297.96 184.71 1355.74 197.13C1397.67 206.14 1427.29 231.23 1466.26 228.4" stroke="#FBE6B1" stroke-width="4" stroke-miterlimit="10"/>
<path d="M1335.23 167.33C1369.87 158.75 1421.44 175.31 1454.57 203.17" stroke="#FBE6B1" stroke-width="4" stroke-miterlimit="10"/>
<path d="M1431.96 33.5995C1457.68 4.98953 1498.05 4.26951 1515.54 8.19951" stroke="#FBE6B1" stroke-width="4" stroke-miterlimit="10"/>
<path d="M1257.87 60.1494C1354.6 8.19942 1384.74 79.3495 1470.2 77.0895C1507.56 76.0995 1544.34 -12.1305 1643.73 34.7195" stroke="#FBE6B1" stroke-width="4" stroke-miterlimit="10"/>
<path d="M1278.57 28.4195C1315.28 5.9195 1342.85 10.8995 1374.57 15.9995" stroke="#FBE6B1" stroke-width="4" stroke-miterlimit="10"/>
<path d="M1299.22 -13.2805C1349.43 -29.0205 1385.42 -16.5406 1408.65 7.01938" stroke="#FBE6B1" stroke-width="4" stroke-miterlimit="10"/>
<path d="M1292.22 74.5695C1305.77 63.2995 1323.28 63.2996 1335.7 67.8696" stroke="#FBE6B1" stroke-width="4" stroke-miterlimit="10"/>
<path d="M1564.1 75.2295C1575.09 66.9495 1584.24 60.5495 1604.38 66.9495" stroke="#FBE6B1" stroke-width="4" stroke-miterlimit="10"/>
<path d="M1368.93 111.349C1421.8 103.339 1431.23 134.269 1486.74 134.389C1544.86 134.519 1519.89 81.0192 1627.19 130.149" stroke="#FBE6B1" stroke-width="4" stroke-miterlimit="10"/>
<path d="M1271.04 124.589C1309.19 111.519 1334.88 149.109 1356.88 141.459" stroke="#FBE6B1" stroke-width="4" stroke-miterlimit="10"/>
<path d="M1620.38 99.7595C1633.42 92.1895 1653.32 100.51 1664.33 113.93" stroke="#FBE6B1" stroke-width="4" stroke-miterlimit="10"/>
<path d="M1551.16 138.33C1567.09 130.78 1584.04 135.13 1594.94 142.64" stroke="#FBE6B1" stroke-width="4" stroke-miterlimit="10"/>
</g>
<mask id="mask4_5736_685" style="mask-type:luminance" maskUnits="userSpaceOnUse" x="1256" y="281" width="420" height="473">
<path d="M1675.89 281.06H1256.92V753.09H1675.89V281.06Z" fill="white"/>
</mask>
<g mask="url(#mask4_5736_685)">
<path d="M1368.93 405.41C1393 405.67 1408.81 393 1465.28 427.36" stroke="#FBE6B1" stroke-width="4" stroke-miterlimit="10"/>
<path d="M1544.71 403.34C1579.35 394.76 1630.92 411.32 1664.05 439.18" stroke="#FBE6B1" stroke-width="4" stroke-miterlimit="10"/>
<path d="M1279.33 410.85C1292.22 408.31 1304.15 408.31 1313.97 420.4" stroke="#FBE6B1" stroke-width="4" stroke-miterlimit="10"/>
<path d="M1467.35 296.17C1564.08 244.22 1594.22 315.37 1679.68 313.11C1717.04 312.12 1753.82 223.89 1853.21 270.74" stroke="#FBE6B1" stroke-width="4" stroke-miterlimit="10"/>
<path d="M1501.71 310.59C1515.26 299.32 1532.77 299.32 1545.19 303.89" stroke="#FBE6B1" stroke-width="4" stroke-miterlimit="10"/>
<path d="M1578.41 347.37C1631.28 339.36 1640.71 370.29 1696.22 370.41C1754.34 370.54 1729.37 317.04 1836.67 366.17" stroke="#FBE6B1" stroke-width="4" stroke-miterlimit="10"/>
<path d="M1480.53 360.61C1518.68 347.54 1544.37 385.13 1566.37 377.48" stroke="#FBE6B1" stroke-width="4" stroke-miterlimit="10"/>
<path d="M1048.38 296.17C1145.11 244.22 1175.25 315.37 1260.71 313.11C1298.07 312.12 1334.85 223.89 1434.24 270.74" stroke="#FBE6B1" stroke-width="4" stroke-miterlimit="10"/>
<path d="M1354.62 311.25C1365.61 302.97 1374.76 296.57 1394.9 302.97" stroke="#FBE6B1" stroke-width="4" stroke-miterlimit="10"/>
<path d="M1159.44 347.37C1212.31 339.36 1221.74 370.29 1277.25 370.41C1335.37 370.54 1310.4 317.04 1417.7 366.17" stroke="#FBE6B1" stroke-width="4" stroke-miterlimit="10"/>
<path d="M1410.9 335.78C1423.94 328.21 1443.84 336.53 1454.85 349.95" stroke="#FBE6B1" stroke-width="4" stroke-miterlimit="10"/>
<path d="M1341.67 374.35C1357.6 366.8 1374.55 371.15 1385.45 378.66" stroke="#FBE6B1" stroke-width="4" stroke-miterlimit="10"/>
</g>
<mask id="mask5_5736_685" style="mask-type:luminance" maskUnits="userSpaceOnUse" x="837" y="-191" width="420" height="473">
<path d="M1256.92 -190.97H837.949V281.06H1256.92V-190.97Z" fill="white"/>
</mask>
<g mask="url(#mask5_5736_685)">
<path d="M1222.48 269.61C1248.2 241 1288.57 240.28 1306.06 244.21" stroke="#FBE6B1" stroke-width="4" stroke-miterlimit="10"/>
<path d="M1048.38 296.17C1145.11 244.22 1175.25 315.37 1260.71 313.11C1298.07 312.12 1334.85 223.89 1434.24 270.74" stroke="#FBE6B1" stroke-width="4" stroke-miterlimit="10"/>
<path d="M1069.09 264.44C1105.8 241.94 1133.37 246.92 1165.09 252.02" stroke="#FBE6B1" stroke-width="4" stroke-miterlimit="10"/>
<path d="M1089.73 222.74C1139.94 207 1175.93 219.48 1199.16 243.04" stroke="#FBE6B1" stroke-width="4" stroke-miterlimit="10"/>
<path d="M1231.72 216.31C1271.44 216.31 1297.96 184.71 1355.74 197.13C1397.67 206.14 1427.29 231.23 1466.26 228.4" stroke="#FBE6B1" stroke-width="4" stroke-miterlimit="10"/>
<path d="M1159.44 169.4C1183.51 169.66 1199.32 156.99 1255.79 191.35" stroke="#FBE6B1" stroke-width="4" stroke-miterlimit="10"/>
<path d="M1069.84 174.84C1082.73 172.3 1094.66 172.3 1104.48 184.39" stroke="#FBE6B1" stroke-width="4" stroke-miterlimit="10"/>
<path d="M803.5 269.61C829.22 241 869.59 240.28 887.08 244.21" stroke="#FBE6B1" stroke-width="4" stroke-miterlimit="10"/>
<path d="M629.41 296.17C726.14 244.22 756.28 315.37 841.74 313.11C879.1 312.12 915.88 223.89 1015.27 270.74" stroke="#FBE6B1" stroke-width="4" stroke-miterlimit="10"/>
<path d="M812.75 216.31C852.47 216.31 878.99 184.71 936.77 197.13C978.7 206.14 1008.32 231.23 1047.29 228.4" stroke="#FBE6B1" stroke-width="4" stroke-miterlimit="10"/>
<path d="M916.26 167.33C950.9 158.75 1002.47 175.31 1035.6 203.17" stroke="#FBE6B1" stroke-width="4" stroke-miterlimit="10"/>
<path d="M1012.99 33.5995C1038.71 4.98953 1079.08 4.26951 1096.57 8.19951" stroke="#FBE6B1" stroke-width="4" stroke-miterlimit="10"/>
<path d="M838.891 60.1494C935.621 8.19942 965.761 79.3495 1051.22 77.0895C1088.58 76.0995 1125.36 -12.1305 1224.75 34.7195" stroke="#FBE6B1" stroke-width="4" stroke-miterlimit="10"/>
<path d="M859.602 28.4195C896.312 5.9195 923.882 10.8995 955.602 15.9995" stroke="#FBE6B1" stroke-width="4" stroke-miterlimit="10"/>
<path d="M880.24 -13.2805C930.45 -29.0205 966.44 -16.5406 989.67 7.01938" stroke="#FBE6B1" stroke-width="4" stroke-miterlimit="10"/>
<path d="M873.25 74.5695C886.8 63.2995 904.31 63.2996 916.73 67.8696" stroke="#FBE6B1" stroke-width="4" stroke-miterlimit="10"/>
<path d="M1145.13 75.2295C1156.12 66.9495 1165.27 60.5495 1185.41 66.9495" stroke="#FBE6B1" stroke-width="4" stroke-miterlimit="10"/>
<path d="M949.951 111.349C1002.82 103.339 1012.25 134.269 1067.76 134.389C1125.88 134.519 1100.91 81.0192 1208.21 130.149" stroke="#FBE6B1" stroke-width="4" stroke-miterlimit="10"/>
<path d="M852.07 124.589C890.22 111.519 915.91 149.109 937.91 141.459" stroke="#FBE6B1" stroke-width="4" stroke-miterlimit="10"/>
<path d="M1201.41 99.7595C1214.45 92.1895 1234.35 100.51 1245.36 113.93" stroke="#FBE6B1" stroke-width="4" stroke-miterlimit="10"/>
<path d="M1132.19 138.33C1148.12 130.78 1165.07 135.13 1175.97 142.64" stroke="#FBE6B1" stroke-width="4" stroke-miterlimit="10"/>
</g>
<mask id="mask6_5736_685" style="mask-type:luminance" maskUnits="userSpaceOnUse" x="837" y="281" width="420" height="473">
<path d="M1256.92 281.06H837.949V753.09H1256.92V281.06Z" fill="white"/>
</mask>
<g mask="url(#mask6_5736_685)">
<path d="M949.951 405.41C974.021 405.67 989.831 393 1046.3 427.36" stroke="#FBE6B1" stroke-width="4" stroke-miterlimit="10"/>
<path d="M1125.74 403.34C1160.38 394.76 1211.95 411.32 1245.08 439.18" stroke="#FBE6B1" stroke-width="4" stroke-miterlimit="10"/>
<path d="M860.352 410.85C873.242 408.31 885.172 408.31 894.992 420.4" stroke="#FBE6B1" stroke-width="4" stroke-miterlimit="10"/>
<path d="M1048.38 296.17C1145.11 244.22 1175.25 315.37 1260.71 313.11C1298.07 312.12 1334.85 223.89 1434.24 270.74" stroke="#FBE6B1" stroke-width="4" stroke-miterlimit="10"/>
<path d="M1082.73 310.59C1096.28 299.32 1113.79 299.32 1126.21 303.89" stroke="#FBE6B1" stroke-width="4" stroke-miterlimit="10"/>
<path d="M1159.44 347.37C1212.31 339.36 1221.74 370.29 1277.25 370.41C1335.37 370.54 1310.4 317.04 1417.7 366.17" stroke="#FBE6B1" stroke-width="4" stroke-miterlimit="10"/>
<path d="M1061.56 360.61C1099.71 347.54 1125.4 385.13 1147.4 377.48" stroke="#FBE6B1" stroke-width="4" stroke-miterlimit="10"/>
<path d="M629.41 296.17C726.14 244.22 756.28 315.37 841.74 313.11C879.1 312.12 915.88 223.89 1015.27 270.74" stroke="#FBE6B1" stroke-width="4" stroke-miterlimit="10"/>
<path d="M935.641 311.25C946.631 302.97 955.781 296.57 975.921 302.97" stroke="#FBE6B1" stroke-width="4" stroke-miterlimit="10"/>
<path d="M740.471 347.37C793.341 339.36 802.771 370.29 858.281 370.41C916.401 370.54 891.431 317.04 998.731 366.17" stroke="#FBE6B1" stroke-width="4" stroke-miterlimit="10"/>
<path d="M991.93 335.78C1004.97 328.21 1024.87 336.53 1035.88 349.95" stroke="#FBE6B1" stroke-width="4" stroke-miterlimit="10"/>
<path d="M922.699 374.35C938.629 366.8 955.579 371.15 966.479 378.66" stroke="#FBE6B1" stroke-width="4" stroke-miterlimit="10"/>
</g>
<mask id="mask7_5736_685" style="mask-type:luminance" maskUnits="userSpaceOnUse" x="418" y="-191" width="420" height="473">
<path d="M837.951 -190.97H418.98V281.06H837.951V-190.97Z" fill="white"/>
</mask>
<g mask="url(#mask7_5736_685)">
<path d="M803.502 269.61C829.222 241 869.592 240.28 887.082 244.21" stroke="#FBE6B1" stroke-width="4" stroke-miterlimit="10"/>
<path d="M629.412 296.17C726.142 244.22 756.282 315.37 841.742 313.11C879.102 312.12 915.882 223.89 1015.27 270.74" stroke="#FBE6B1" stroke-width="4" stroke-miterlimit="10"/>
<path d="M650.111 264.44C686.821 241.94 714.391 246.92 746.111 252.02" stroke="#FBE6B1" stroke-width="4" stroke-miterlimit="10"/>
<path d="M670.762 222.74C720.972 207 756.962 219.48 780.192 243.04" stroke="#FBE6B1" stroke-width="4" stroke-miterlimit="10"/>
<path d="M812.752 216.31C852.472 216.31 878.992 184.71 936.772 197.13C978.702 206.14 1008.32 231.23 1047.29 228.4" stroke="#FBE6B1" stroke-width="4" stroke-miterlimit="10"/>
<path d="M740.473 169.4C764.543 169.66 780.353 156.99 836.823 191.35" stroke="#FBE6B1" stroke-width="4" stroke-miterlimit="10"/>
<path d="M650.873 174.84C663.763 172.3 675.693 172.3 685.513 184.39" stroke="#FBE6B1" stroke-width="4" stroke-miterlimit="10"/>
<path d="M384.531 269.61C410.251 241 450.621 240.28 468.111 244.21" stroke="#FBE6B1" stroke-width="4" stroke-miterlimit="10"/>
<path d="M210.441 296.17C307.171 244.22 337.311 315.37 422.771 313.11C460.131 312.12 496.911 223.89 596.301 270.74" stroke="#FBE6B1" stroke-width="4" stroke-miterlimit="10"/>
<path d="M393.781 216.31C433.501 216.31 460.021 184.71 517.801 197.13C559.731 206.14 589.351 231.23 628.321 228.4" stroke="#FBE6B1" stroke-width="4" stroke-miterlimit="10"/>
<path d="M497.281 167.33C531.921 158.75 583.491 175.31 616.621 203.17" stroke="#FBE6B1" stroke-width="4" stroke-miterlimit="10"/>
<path d="M594.021 33.5995C619.741 4.98953 660.111 4.26951 677.601 8.19951" stroke="#FBE6B1" stroke-width="4" stroke-miterlimit="10"/>
<path d="M419.922 60.1494C516.652 8.19942 546.792 79.3495 632.252 77.0895C669.612 76.0995 706.392 -12.1305 805.782 34.7195" stroke="#FBE6B1" stroke-width="4" stroke-miterlimit="10"/>
<path d="M440.633 28.4195C477.343 5.9195 504.913 10.8995 536.633 15.9995" stroke="#FBE6B1" stroke-width="4" stroke-miterlimit="10"/>
<path d="M461.271 -13.2805C511.481 -29.0205 547.471 -16.5406 570.701 7.01938" stroke="#FBE6B1" stroke-width="4" stroke-miterlimit="10"/>
<path d="M454.281 74.5695C467.831 63.2995 485.341 63.2996 497.761 67.8696" stroke="#FBE6B1" stroke-width="4" stroke-miterlimit="10"/>
<path d="M726.162 75.2295C737.152 66.9495 746.302 60.5495 766.442 66.9495" stroke="#FBE6B1" stroke-width="4" stroke-miterlimit="10"/>
<path d="M530.982 111.349C583.852 103.339 593.282 134.269 648.792 134.389C706.912 134.519 681.942 81.0192 789.242 130.149" stroke="#FBE6B1" stroke-width="4" stroke-miterlimit="10"/>
<path d="M433.102 124.589C471.252 111.519 496.942 149.109 518.942 141.459" stroke="#FBE6B1" stroke-width="4" stroke-miterlimit="10"/>
<path d="M782.441 99.7595C795.481 92.1895 815.381 100.51 826.391 113.93" stroke="#FBE6B1" stroke-width="4" stroke-miterlimit="10"/>
<path d="M713.223 138.33C729.153 130.78 746.103 135.13 757.003 142.64" stroke="#FBE6B1" stroke-width="4" stroke-miterlimit="10"/>
</g>
<mask id="mask8_5736_685" style="mask-type:luminance" maskUnits="userSpaceOnUse" x="418" y="281" width="420" height="473">
<path d="M837.951 281.06H418.98V753.09H837.951V281.06Z" fill="white"/>
</mask>
<g mask="url(#mask8_5736_685)">
<path d="M530.982 405.41C555.052 405.67 570.862 393 627.332 427.36" stroke="#FBE6B1" stroke-width="4" stroke-miterlimit="10"/>
<path d="M706.771 403.34C741.411 394.76 792.982 411.32 826.112 439.18" stroke="#FBE6B1" stroke-width="4" stroke-miterlimit="10"/>
<path d="M441.383 410.85C454.273 408.31 466.203 408.31 476.023 420.4" stroke="#FBE6B1" stroke-width="4" stroke-miterlimit="10"/>
<path d="M629.412 296.17C726.142 244.22 756.282 315.37 841.742 313.11C879.102 312.12 915.882 223.89 1015.27 270.74" stroke="#FBE6B1" stroke-width="4" stroke-miterlimit="10"/>
<path d="M663.762 310.59C677.312 299.32 694.822 299.32 707.242 303.89" stroke="#FBE6B1" stroke-width="4" stroke-miterlimit="10"/>
<path d="M740.473 347.37C793.343 339.36 802.773 370.29 858.283 370.41C916.403 370.54 891.433 317.04 998.733 366.17" stroke="#FBE6B1" stroke-width="4" stroke-miterlimit="10"/>
<path d="M642.582 360.61C680.732 347.54 706.422 385.13 728.422 377.48" stroke="#FBE6B1" stroke-width="4" stroke-miterlimit="10"/>
<path d="M210.441 296.17C307.171 244.22 337.311 315.37 422.771 313.11C460.131 312.12 496.911 223.89 596.301 270.74" stroke="#FBE6B1" stroke-width="4" stroke-miterlimit="10"/>
<path d="M516.672 311.25C527.662 302.97 536.812 296.57 556.952 302.97" stroke="#FBE6B1" stroke-width="4" stroke-miterlimit="10"/>
<path d="M321.492 347.37C374.362 339.36 383.792 370.29 439.302 370.41C497.422 370.54 472.452 317.04 579.752 366.17" stroke="#FBE6B1" stroke-width="4" stroke-miterlimit="10"/>
<path d="M572.951 335.78C585.991 328.21 605.891 336.53 616.901 349.95" stroke="#FBE6B1" stroke-width="4" stroke-miterlimit="10"/>
<path d="M503.73 374.35C519.66 366.8 536.61 371.15 547.51 378.66" stroke="#FBE6B1" stroke-width="4" stroke-miterlimit="10"/>
</g>
<mask id="mask9_5736_685" style="mask-type:luminance" maskUnits="userSpaceOnUse" x="0" y="-191" width="419" height="473">
<path d="M418.97 -190.97H0V281.06H418.97V-190.97Z" fill="white"/>
</mask>
<g mask="url(#mask9_5736_685)">
<path d="M384.531 269.61C410.251 241 450.621 240.28 468.111 244.21" stroke="#FBE6B1" stroke-width="4" stroke-miterlimit="10"/>
<path d="M210.441 296.17C307.171 244.22 337.311 315.37 422.771 313.11C460.131 312.12 496.911 223.89 596.301 270.74" stroke="#FBE6B1" stroke-width="4" stroke-miterlimit="10"/>
<path d="M231.141 264.44C267.851 241.94 295.421 246.92 327.141 252.02" stroke="#FBE6B1" stroke-width="4" stroke-miterlimit="10"/>
<path d="M251.791 222.74C302.001 207 337.991 219.48 361.221 243.04" stroke="#FBE6B1" stroke-width="4" stroke-miterlimit="10"/>
<path d="M393.781 216.31C433.501 216.31 460.021 184.71 517.801 197.13C559.731 206.14 589.351 231.23 628.321 228.4" stroke="#FBE6B1" stroke-width="4" stroke-miterlimit="10"/>
<path d="M321.492 169.4C345.562 169.66 361.372 156.99 417.842 191.35" stroke="#FBE6B1" stroke-width="4" stroke-miterlimit="10"/>
<path d="M231.891 174.84C244.781 172.3 256.711 172.3 266.531 184.39" stroke="#FBE6B1" stroke-width="4" stroke-miterlimit="10"/>
<path d="M-34.4395 269.61C-8.71945 241 31.6505 240.28 49.1405 244.21" stroke="#FBE6B1" stroke-width="4" stroke-miterlimit="10"/>
<path d="M-208.539 296.17C-111.809 244.22 -81.6691 315.37 3.79094 313.11C41.1509 312.12 77.931 223.89 177.321 270.74" stroke="#FBE6B1" stroke-width="4" stroke-miterlimit="10"/>
<path d="M-25.1992 216.31C14.5208 216.31 41.0408 184.71 98.8208 197.13C140.751 206.14 170.371 231.23 209.341 228.4" stroke="#FBE6B1" stroke-width="4" stroke-miterlimit="10"/>
<path d="M78.3105 167.33C112.951 158.75 164.521 175.31 197.651 203.17" stroke="#FBE6B1" stroke-width="4" stroke-miterlimit="10"/>
<path d="M175.041 33.5995C200.761 4.98953 241.131 4.26951 258.621 8.19951" stroke="#FBE6B1" stroke-width="4" stroke-miterlimit="10"/>
<path d="M0.951172 60.1494C97.6812 8.19942 127.821 79.3495 213.281 77.0895C250.641 76.0995 287.421 -12.1305 386.811 34.7195" stroke="#FBE6B1" stroke-width="4" stroke-miterlimit="10"/>
<path d="M21.6621 28.4195C58.3721 5.9195 85.9421 10.8995 117.662 15.9995" stroke="#FBE6B1" stroke-width="4" stroke-miterlimit="10"/>
<path d="M42.3008 -13.2805C92.5108 -29.0205 128.501 -16.5406 151.731 7.01938" stroke="#FBE6B1" stroke-width="4" stroke-miterlimit="10"/>
<path d="M35.3008 74.5695C48.8508 63.2995 66.3608 63.2996 78.7808 67.8696" stroke="#FBE6B1" stroke-width="4" stroke-miterlimit="10"/>
<path d="M307.191 75.2295C318.181 66.9495 327.331 60.5495 347.471 66.9495" stroke="#FBE6B1" stroke-width="4" stroke-miterlimit="10"/>
<path d="M112.012 111.349C164.882 103.339 174.312 134.269 229.822 134.389C287.942 134.519 262.972 81.0192 370.272 130.149" stroke="#FBE6B1" stroke-width="4" stroke-miterlimit="10"/>
<path d="M14.1309 124.589C52.2809 111.519 77.9709 149.109 99.9709 141.459" stroke="#FBE6B1" stroke-width="4" stroke-miterlimit="10"/>
<path d="M363.471 99.7595C376.511 92.1895 396.411 100.51 407.421 113.93" stroke="#FBE6B1" stroke-width="4" stroke-miterlimit="10"/>
<path d="M294.24 138.33C310.17 130.78 327.12 135.13 338.02 142.64" stroke="#FBE6B1" stroke-width="4" stroke-miterlimit="10"/>
</g>
<mask id="mask10_5736_685" style="mask-type:luminance" maskUnits="userSpaceOnUse" x="0" y="281" width="419" height="473">
<path d="M418.97 281.06H0V753.09H418.97V281.06Z" fill="white"/>
</mask>
<g mask="url(#mask10_5736_685)">
<path d="M112.012 405.41C136.082 405.67 151.892 393 208.362 427.36" stroke="#FBE6B1" stroke-width="4" stroke-miterlimit="10"/>
<path d="M287.801 403.34C322.441 394.76 374.011 411.32 407.141 439.18" stroke="#FBE6B1" stroke-width="4" stroke-miterlimit="10"/>
<path d="M22.4121 410.85C35.3021 408.31 47.2321 408.31 57.0521 420.4" stroke="#FBE6B1" stroke-width="4" stroke-miterlimit="10"/>
<path d="M210.441 296.17C307.171 244.22 337.311 315.37 422.771 313.11C460.131 312.12 496.911 223.89 596.301 270.74" stroke="#FBE6B1" stroke-width="4" stroke-miterlimit="10"/>
<path d="M244.791 310.59C258.341 299.32 275.851 299.32 288.271 303.89" stroke="#FBE6B1" stroke-width="4" stroke-miterlimit="10"/>
<path d="M321.492 347.37C374.362 339.36 383.792 370.29 439.302 370.41C497.422 370.54 472.452 317.04 579.752 366.17" stroke="#FBE6B1" stroke-width="4" stroke-miterlimit="10"/>
<path d="M223.611 360.61C261.761 347.54 287.451 385.13 309.451 377.48" stroke="#FBE6B1" stroke-width="4" stroke-miterlimit="10"/>
<path d="M-208.539 296.17C-111.809 244.22 -81.6691 315.37 3.79094 313.11C41.1509 312.12 77.931 223.89 177.321 270.74" stroke="#FBE6B1" stroke-width="4" stroke-miterlimit="10"/>
<path d="M97.7012 311.25C108.691 302.97 117.841 296.57 137.981 302.97" stroke="#FBE6B1" stroke-width="4" stroke-miterlimit="10"/>
<path d="M-97.4785 347.37C-44.6085 339.36 -35.1785 370.29 20.3315 370.41C78.4515 370.54 53.4815 317.04 160.781 366.17" stroke="#FBE6B1" stroke-width="4" stroke-miterlimit="10"/>
<path d="M153.98 335.78C167.02 328.21 186.92 336.53 197.93 349.95" stroke="#FBE6B1" stroke-width="4" stroke-miterlimit="10"/>
<path d="M84.7617 374.35C100.692 366.8 117.642 371.15 128.542 378.66" stroke="#FBE6B1" stroke-width="4" stroke-miterlimit="10"/>
</g>
</g>
</svg>
