<svg width="1920" height="477" viewBox="0 0 1920 477" fill="none" xmlns="http://www.w3.org/2000/svg">
<mask id="mask0_5736_2636" style="mask-type:luminance" maskUnits="userSpaceOnUse" x="0" y="0" width="1920" height="477">
<path d="M1920 0H0V477H1920V0Z" fill="white"/>
</mask>
<g mask="url(#mask0_5736_2636)">
<mask id="mask1_5736_2636" style="mask-type:luminance" maskUnits="userSpaceOnUse" x="1675" y="0" width="420" height="473">
<path d="M2094.86 0H1675.89V472.03H2094.86V0Z" fill="white"/>
</mask>
<g mask="url(#mask1_5736_2636)">
<path d="M1886.33 487.14C1983.06 435.19 2013.2 506.34 2098.66 504.08C2136.02 503.09 2172.8 414.86 2272.19 461.71" stroke="#FBE6B1" stroke-width="4" stroke-miterlimit="10"/>
<path d="M1907.03 455.41C1943.74 432.91 1971.31 437.89 2003.03 442.99" stroke="#FBE6B1" stroke-width="4" stroke-miterlimit="10"/>
<path d="M1907.78 365.81C1920.67 363.27 1932.6 363.27 1942.42 375.36" stroke="#FBE6B1" stroke-width="4" stroke-miterlimit="10"/>
<path d="M1641.45 460.58C1667.17 431.97 1707.54 431.25 1725.03 435.18" stroke="#FBE6B1" stroke-width="4" stroke-miterlimit="10"/>
<path d="M1467.35 487.14C1564.08 435.19 1594.22 506.34 1679.68 504.08C1717.04 503.09 1753.82 414.86 1853.21 461.71" stroke="#FBE6B1" stroke-width="4" stroke-miterlimit="10"/>
<path d="M1650.69 407.28C1690.41 407.28 1716.93 375.68 1774.71 388.1C1816.64 397.11 1846.26 422.2 1885.23 419.37" stroke="#FBE6B1" stroke-width="4" stroke-miterlimit="10"/>
<path d="M1754.2 358.3C1788.84 349.72 1840.41 366.28 1873.54 394.14" stroke="#FBE6B1" stroke-width="4" stroke-miterlimit="10"/>
<path d="M1850.93 224.57C1876.65 195.96 1917.02 195.24 1934.51 199.17" stroke="#FBE6B1" stroke-width="4" stroke-miterlimit="10"/>
<path d="M1676.84 251.12C1773.57 199.17 1803.71 270.32 1889.17 268.06C1926.53 267.07 1963.31 178.84 2062.7 225.69" stroke="#FBE6B1" stroke-width="4" stroke-miterlimit="10"/>
<path d="M1697.55 219.39C1734.26 196.89 1761.83 201.87 1793.55 206.97" stroke="#FBE6B1" stroke-width="4" stroke-miterlimit="10"/>
<path d="M1718.19 177.69C1768.4 161.95 1804.39 174.43 1827.62 197.99" stroke="#FBE6B1" stroke-width="4" stroke-miterlimit="10"/>
<path d="M1860.18 171.27C1899.9 171.27 1926.42 139.67 1984.2 152.09C2026.13 161.1 2055.75 186.19 2094.72 183.36" stroke="#FBE6B1" stroke-width="4" stroke-miterlimit="10"/>
<path d="M1711.19 265.54C1724.74 254.27 1742.25 254.27 1754.67 258.84" stroke="#FBE6B1" stroke-width="4" stroke-miterlimit="10"/>
<path d="M1787.9 302.32C1840.77 294.31 1850.2 325.24 1905.71 325.36C1963.83 325.49 1938.86 271.99 2046.16 321.12" stroke="#FBE6B1" stroke-width="4" stroke-miterlimit="10"/>
<path d="M1787.9 124.35C1811.97 124.61 1827.78 111.94 1884.25 146.3" stroke="#FBE6B1" stroke-width="4" stroke-miterlimit="10"/>
<path d="M1690.02 315.56C1728.17 302.49 1753.86 340.08 1775.86 332.43" stroke="#FBE6B1" stroke-width="4" stroke-miterlimit="10"/>
<path d="M1698.3 129.79C1711.19 127.25 1723.12 127.25 1732.94 139.34" stroke="#FBE6B1" stroke-width="4" stroke-miterlimit="10"/>
<path d="M1886.33 15.1099C1983.06 -36.8401 2013.2 34.3099 2098.66 32.0499C2136.02 31.0599 2172.8 -57.1701 2272.19 -10.3201" stroke="#FBE6B1" stroke-width="4" stroke-miterlimit="10"/>
<path d="M1920.68 29.53C1934.23 18.26 1951.74 18.26 1964.16 22.83" stroke="#FBE6B1" stroke-width="4" stroke-miterlimit="10"/>
<path d="M1899.5 79.5498C1937.65 66.4798 1963.34 104.07 1985.34 96.4198" stroke="#FBE6B1" stroke-width="4" stroke-miterlimit="10"/>
<path d="M1467.35 15.1099C1564.08 -36.8401 1594.22 34.3099 1679.68 32.0499C1717.04 31.0599 1753.82 -57.1701 1853.21 -10.3201" stroke="#FBE6B1" stroke-width="4" stroke-miterlimit="10"/>
<path d="M1773.59 30.19C1784.58 21.91 1793.73 15.5099 1813.87 21.9099" stroke="#FBE6B1" stroke-width="4" stroke-miterlimit="10"/>
<path d="M1578.41 66.3102C1631.28 58.3002 1640.71 89.2301 1696.22 89.3501C1754.34 89.4801 1729.37 35.9801 1836.67 85.1101" stroke="#FBE6B1" stroke-width="4" stroke-miterlimit="10"/>
<path d="M1829.87 54.72C1842.91 47.15 1862.81 55.47 1873.82 68.89" stroke="#FBE6B1" stroke-width="4" stroke-miterlimit="10"/>
<path d="M1760.65 93.2897C1776.58 85.7397 1793.53 90.0897 1804.43 97.5997" stroke="#FBE6B1" stroke-width="4" stroke-miterlimit="10"/>
</g>
<mask id="mask2_5736_2636" style="mask-type:luminance" maskUnits="userSpaceOnUse" x="1675" y="472" width="420" height="473">
<path d="M2094.86 472.03H1675.89V944.06H2094.86V472.03Z" fill="white"/>
</mask>
<g mask="url(#mask2_5736_2636)">
<path d="M1886.33 487.14C1983.06 435.19 2013.2 506.34 2098.66 504.08C2136.02 503.09 2172.8 414.86 2272.19 461.71" stroke="#FBE6B1" stroke-width="4" stroke-miterlimit="10"/>
<path d="M1467.35 487.14C1564.08 435.19 1594.22 506.34 1679.68 504.08C1717.04 503.09 1753.82 414.86 1853.21 461.71" stroke="#FBE6B1" stroke-width="4" stroke-miterlimit="10"/>
</g>
<mask id="mask3_5736_2636" style="mask-type:luminance" maskUnits="userSpaceOnUse" x="1256" y="0" width="420" height="473">
<path d="M1675.89 0H1256.92V472.03H1675.89V0Z" fill="white"/>
</mask>
<g mask="url(#mask3_5736_2636)">
<path d="M1641.45 460.58C1667.17 431.97 1707.54 431.25 1725.03 435.18" stroke="#FBE6B1" stroke-width="4" stroke-miterlimit="10"/>
<path d="M1467.35 487.14C1564.08 435.19 1594.22 506.34 1679.68 504.08C1717.04 503.09 1753.82 414.86 1853.21 461.71" stroke="#FBE6B1" stroke-width="4" stroke-miterlimit="10"/>
<path d="M1488.06 455.41C1524.77 432.91 1552.34 437.89 1584.06 442.99" stroke="#FBE6B1" stroke-width="4" stroke-miterlimit="10"/>
<path d="M1508.7 413.7C1558.91 397.96 1594.9 410.44 1618.13 434" stroke="#FBE6B1" stroke-width="4" stroke-miterlimit="10"/>
<path d="M1650.69 407.28C1690.41 407.28 1716.93 375.68 1774.71 388.1C1816.64 397.11 1846.26 422.2 1885.23 419.37" stroke="#FBE6B1" stroke-width="4" stroke-miterlimit="10"/>
<path d="M1578.41 360.37C1602.48 360.63 1618.29 347.96 1674.76 382.32" stroke="#FBE6B1" stroke-width="4" stroke-miterlimit="10"/>
<path d="M1488.81 365.81C1501.7 363.27 1513.63 363.27 1523.45 375.36" stroke="#FBE6B1" stroke-width="4" stroke-miterlimit="10"/>
<path d="M1222.48 460.58C1248.2 431.97 1288.57 431.25 1306.06 435.18" stroke="#FBE6B1" stroke-width="4" stroke-miterlimit="10"/>
<path d="M1048.38 487.14C1145.11 435.19 1175.25 506.34 1260.71 504.08C1298.07 503.09 1334.85 414.86 1434.24 461.71" stroke="#FBE6B1" stroke-width="4" stroke-miterlimit="10"/>
<path d="M1231.72 407.28C1271.44 407.28 1297.96 375.68 1355.74 388.1C1397.67 397.11 1427.29 422.2 1466.26 419.37" stroke="#FBE6B1" stroke-width="4" stroke-miterlimit="10"/>
<path d="M1335.23 358.3C1369.87 349.72 1421.44 366.28 1454.57 394.14" stroke="#FBE6B1" stroke-width="4" stroke-miterlimit="10"/>
<path d="M1431.96 224.57C1457.68 195.96 1498.05 195.24 1515.54 199.17" stroke="#FBE6B1" stroke-width="4" stroke-miterlimit="10"/>
<path d="M1257.87 251.12C1354.6 199.17 1384.74 270.32 1470.2 268.06C1507.56 267.07 1544.34 178.84 1643.73 225.69" stroke="#FBE6B1" stroke-width="4" stroke-miterlimit="10"/>
<path d="M1278.57 219.39C1315.28 196.89 1342.85 201.87 1374.57 206.97" stroke="#FBE6B1" stroke-width="4" stroke-miterlimit="10"/>
<path d="M1299.22 177.69C1349.43 161.95 1385.42 174.43 1408.65 197.99" stroke="#FBE6B1" stroke-width="4" stroke-miterlimit="10"/>
<path d="M1441.21 171.27C1480.93 171.27 1507.45 139.67 1565.23 152.09C1607.16 161.1 1636.78 186.19 1675.75 183.36" stroke="#FBE6B1" stroke-width="4" stroke-miterlimit="10"/>
<path d="M1292.22 265.54C1305.77 254.27 1323.28 254.27 1335.7 258.84" stroke="#FBE6B1" stroke-width="4" stroke-miterlimit="10"/>
<path d="M1564.1 266.2C1575.09 257.92 1584.24 251.52 1604.38 257.92" stroke="#FBE6B1" stroke-width="4" stroke-miterlimit="10"/>
<path d="M1368.93 302.32C1421.8 294.31 1431.23 325.24 1486.74 325.36C1544.86 325.49 1519.89 271.99 1627.19 321.12" stroke="#FBE6B1" stroke-width="4" stroke-miterlimit="10"/>
<path d="M1368.93 124.35C1393 124.61 1408.81 111.94 1465.28 146.3" stroke="#FBE6B1" stroke-width="4" stroke-miterlimit="10"/>
<path d="M1544.71 122.28C1579.35 113.7 1630.92 130.26 1664.05 158.12" stroke="#FBE6B1" stroke-width="4" stroke-miterlimit="10"/>
<path d="M1271.04 315.56C1309.19 302.49 1334.88 340.08 1356.88 332.43" stroke="#FBE6B1" stroke-width="4" stroke-miterlimit="10"/>
<path d="M1279.33 129.79C1292.22 127.25 1304.15 127.25 1313.97 139.34" stroke="#FBE6B1" stroke-width="4" stroke-miterlimit="10"/>
<path d="M1620.38 290.73C1633.42 283.16 1653.32 291.48 1664.33 304.9" stroke="#FBE6B1" stroke-width="4" stroke-miterlimit="10"/>
<path d="M1551.16 329.3C1567.09 321.75 1584.04 326.1 1594.94 333.61" stroke="#FBE6B1" stroke-width="4" stroke-miterlimit="10"/>
<path d="M1467.35 15.1099C1564.08 -36.8401 1594.22 34.3099 1679.68 32.0499C1717.04 31.0599 1753.82 -57.1701 1853.21 -10.3201" stroke="#FBE6B1" stroke-width="4" stroke-miterlimit="10"/>
<path d="M1501.71 29.53C1515.26 18.26 1532.77 18.26 1545.19 22.83" stroke="#FBE6B1" stroke-width="4" stroke-miterlimit="10"/>
<path d="M1578.41 66.3102C1631.28 58.3002 1640.71 89.2301 1696.22 89.3501C1754.34 89.4801 1729.37 35.9801 1836.67 85.1101" stroke="#FBE6B1" stroke-width="4" stroke-miterlimit="10"/>
<path d="M1480.53 79.5498C1518.68 66.4798 1544.37 104.07 1566.37 96.4198" stroke="#FBE6B1" stroke-width="4" stroke-miterlimit="10"/>
<path d="M1048.38 15.1099C1145.11 -36.8401 1175.25 34.3099 1260.71 32.0499C1298.07 31.0599 1334.85 -57.1701 1434.24 -10.3201" stroke="#FBE6B1" stroke-width="4" stroke-miterlimit="10"/>
<path d="M1354.62 30.19C1365.61 21.91 1374.76 15.5099 1394.9 21.9099" stroke="#FBE6B1" stroke-width="4" stroke-miterlimit="10"/>
<path d="M1159.44 66.3102C1212.31 58.3002 1221.74 89.2301 1277.25 89.3501C1335.37 89.4801 1310.4 35.9801 1417.7 85.1101" stroke="#FBE6B1" stroke-width="4" stroke-miterlimit="10"/>
<path d="M1410.9 54.72C1423.94 47.15 1443.84 55.47 1454.85 68.89" stroke="#FBE6B1" stroke-width="4" stroke-miterlimit="10"/>
<path d="M1341.67 93.2897C1357.6 85.7397 1374.55 90.0897 1385.45 97.5997" stroke="#FBE6B1" stroke-width="4" stroke-miterlimit="10"/>
</g>
<mask id="mask4_5736_2636" style="mask-type:luminance" maskUnits="userSpaceOnUse" x="1256" y="472" width="420" height="473">
<path d="M1675.89 472.03H1256.92V944.06H1675.89V472.03Z" fill="white"/>
</mask>
<g mask="url(#mask4_5736_2636)">
<path d="M1467.35 487.14C1564.08 435.19 1594.22 506.34 1679.68 504.08C1717.04 503.09 1753.82 414.86 1853.21 461.71" stroke="#FBE6B1" stroke-width="4" stroke-miterlimit="10"/>
<path d="M1048.38 487.14C1145.11 435.19 1175.25 506.34 1260.71 504.08C1298.07 503.09 1334.85 414.86 1434.24 461.71" stroke="#FBE6B1" stroke-width="4" stroke-miterlimit="10"/>
</g>
<mask id="mask5_5736_2636" style="mask-type:luminance" maskUnits="userSpaceOnUse" x="837" y="0" width="420" height="473">
<path d="M1256.92 0H837.949V472.03H1256.92V0Z" fill="white"/>
</mask>
<g mask="url(#mask5_5736_2636)">
<path d="M1222.48 460.58C1248.2 431.97 1288.57 431.25 1306.06 435.18" stroke="#FBE6B1" stroke-width="4" stroke-miterlimit="10"/>
<path d="M1048.38 487.14C1145.11 435.19 1175.25 506.34 1260.71 504.08C1298.07 503.09 1334.85 414.86 1434.24 461.71" stroke="#FBE6B1" stroke-width="4" stroke-miterlimit="10"/>
<path d="M1069.09 455.41C1105.8 432.91 1133.37 437.89 1165.09 442.99" stroke="#FBE6B1" stroke-width="4" stroke-miterlimit="10"/>
<path d="M1089.73 413.7C1139.94 397.96 1175.93 410.44 1199.16 434" stroke="#FBE6B1" stroke-width="4" stroke-miterlimit="10"/>
<path d="M1231.72 407.28C1271.44 407.28 1297.96 375.68 1355.74 388.1C1397.67 397.11 1427.29 422.2 1466.26 419.37" stroke="#FBE6B1" stroke-width="4" stroke-miterlimit="10"/>
<path d="M1159.44 360.37C1183.51 360.63 1199.32 347.96 1255.79 382.32" stroke="#FBE6B1" stroke-width="4" stroke-miterlimit="10"/>
<path d="M1069.84 365.81C1082.73 363.27 1094.66 363.27 1104.48 375.36" stroke="#FBE6B1" stroke-width="4" stroke-miterlimit="10"/>
<path d="M803.5 460.58C829.22 431.97 869.59 431.25 887.08 435.18" stroke="#FBE6B1" stroke-width="4" stroke-miterlimit="10"/>
<path d="M629.41 487.14C726.14 435.19 756.28 506.34 841.74 504.08C879.1 503.09 915.88 414.86 1015.27 461.71" stroke="#FBE6B1" stroke-width="4" stroke-miterlimit="10"/>
<path d="M812.75 407.28C852.47 407.28 878.99 375.68 936.77 388.1C978.7 397.11 1008.32 422.2 1047.29 419.37" stroke="#FBE6B1" stroke-width="4" stroke-miterlimit="10"/>
<path d="M916.26 358.3C950.9 349.72 1002.47 366.28 1035.6 394.14" stroke="#FBE6B1" stroke-width="4" stroke-miterlimit="10"/>
<path d="M1012.99 224.57C1038.71 195.96 1079.08 195.24 1096.57 199.17" stroke="#FBE6B1" stroke-width="4" stroke-miterlimit="10"/>
<path d="M838.891 251.12C935.621 199.17 965.761 270.32 1051.22 268.06C1088.58 267.07 1125.36 178.84 1224.75 225.69" stroke="#FBE6B1" stroke-width="4" stroke-miterlimit="10"/>
<path d="M859.602 219.39C896.312 196.89 923.882 201.87 955.602 206.97" stroke="#FBE6B1" stroke-width="4" stroke-miterlimit="10"/>
<path d="M880.24 177.69C930.45 161.95 966.44 174.43 989.67 197.99" stroke="#FBE6B1" stroke-width="4" stroke-miterlimit="10"/>
<path d="M1022.24 171.27C1061.96 171.27 1088.48 139.67 1146.26 152.09C1188.19 161.1 1217.81 186.19 1256.78 183.36" stroke="#FBE6B1" stroke-width="4" stroke-miterlimit="10"/>
<path d="M873.25 265.54C886.8 254.27 904.31 254.27 916.73 258.84" stroke="#FBE6B1" stroke-width="4" stroke-miterlimit="10"/>
<path d="M1145.13 266.2C1156.12 257.92 1165.27 251.52 1185.41 257.92" stroke="#FBE6B1" stroke-width="4" stroke-miterlimit="10"/>
<path d="M949.951 302.32C1002.82 294.31 1012.25 325.24 1067.76 325.36C1125.88 325.49 1100.91 271.99 1208.21 321.12" stroke="#FBE6B1" stroke-width="4" stroke-miterlimit="10"/>
<path d="M949.951 124.35C974.021 124.61 989.831 111.94 1046.3 146.3" stroke="#FBE6B1" stroke-width="4" stroke-miterlimit="10"/>
<path d="M1125.74 122.28C1160.38 113.7 1211.95 130.26 1245.08 158.12" stroke="#FBE6B1" stroke-width="4" stroke-miterlimit="10"/>
<path d="M852.07 315.56C890.22 302.49 915.91 340.08 937.91 332.43" stroke="#FBE6B1" stroke-width="4" stroke-miterlimit="10"/>
<path d="M860.352 129.79C873.242 127.25 885.172 127.25 894.992 139.34" stroke="#FBE6B1" stroke-width="4" stroke-miterlimit="10"/>
<path d="M1201.41 290.73C1214.45 283.16 1234.35 291.48 1245.36 304.9" stroke="#FBE6B1" stroke-width="4" stroke-miterlimit="10"/>
<path d="M1132.19 329.3C1148.12 321.75 1165.07 326.1 1175.97 333.61" stroke="#FBE6B1" stroke-width="4" stroke-miterlimit="10"/>
<path d="M1048.38 15.1099C1145.11 -36.8401 1175.25 34.3099 1260.71 32.0499C1298.07 31.0599 1334.85 -57.1701 1434.24 -10.3201" stroke="#FBE6B1" stroke-width="4" stroke-miterlimit="10"/>
<path d="M1082.73 29.53C1096.28 18.26 1113.79 18.26 1126.21 22.83" stroke="#FBE6B1" stroke-width="4" stroke-miterlimit="10"/>
<path d="M1159.44 66.3102C1212.31 58.3002 1221.74 89.2301 1277.25 89.3501C1335.37 89.4801 1310.4 35.9801 1417.7 85.1101" stroke="#FBE6B1" stroke-width="4" stroke-miterlimit="10"/>
<path d="M1061.56 79.5498C1099.71 66.4798 1125.4 104.07 1147.4 96.4198" stroke="#FBE6B1" stroke-width="4" stroke-miterlimit="10"/>
<path d="M629.41 15.1099C726.14 -36.8401 756.28 34.3099 841.74 32.0499C879.1 31.0599 915.88 -57.1701 1015.27 -10.3201" stroke="#FBE6B1" stroke-width="4" stroke-miterlimit="10"/>
<path d="M935.641 30.19C946.631 21.91 955.781 15.5099 975.921 21.9099" stroke="#FBE6B1" stroke-width="4" stroke-miterlimit="10"/>
<path d="M740.471 66.3102C793.341 58.3002 802.771 89.2301 858.281 89.3501C916.401 89.4801 891.431 35.9801 998.731 85.1101" stroke="#FBE6B1" stroke-width="4" stroke-miterlimit="10"/>
<path d="M991.93 54.72C1004.97 47.15 1024.87 55.47 1035.88 68.89" stroke="#FBE6B1" stroke-width="4" stroke-miterlimit="10"/>
<path d="M922.699 93.2897C938.629 85.7397 955.579 90.0897 966.479 97.5997" stroke="#FBE6B1" stroke-width="4" stroke-miterlimit="10"/>
</g>
<mask id="mask6_5736_2636" style="mask-type:luminance" maskUnits="userSpaceOnUse" x="837" y="472" width="420" height="473">
<path d="M1256.92 472.03H837.949V944.06H1256.92V472.03Z" fill="white"/>
</mask>
<g mask="url(#mask6_5736_2636)">
<path d="M1048.38 487.14C1145.11 435.19 1175.25 506.34 1260.71 504.08C1298.07 503.09 1334.85 414.86 1434.24 461.71" stroke="#FBE6B1" stroke-width="4" stroke-miterlimit="10"/>
<path d="M629.41 487.14C726.14 435.19 756.28 506.34 841.74 504.08C879.1 503.09 915.88 414.86 1015.27 461.71" stroke="#FBE6B1" stroke-width="4" stroke-miterlimit="10"/>
</g>
<mask id="mask7_5736_2636" style="mask-type:luminance" maskUnits="userSpaceOnUse" x="418" y="0" width="420" height="473">
<path d="M837.951 0H418.98V472.03H837.951V0Z" fill="white"/>
</mask>
<g mask="url(#mask7_5736_2636)">
<path d="M803.502 460.58C829.222 431.97 869.592 431.25 887.082 435.18" stroke="#FBE6B1" stroke-width="4" stroke-miterlimit="10"/>
<path d="M629.412 487.14C726.142 435.19 756.282 506.34 841.742 504.08C879.102 503.09 915.882 414.86 1015.27 461.71" stroke="#FBE6B1" stroke-width="4" stroke-miterlimit="10"/>
<path d="M650.111 455.41C686.821 432.91 714.391 437.89 746.111 442.99" stroke="#FBE6B1" stroke-width="4" stroke-miterlimit="10"/>
<path d="M670.762 413.7C720.972 397.96 756.962 410.44 780.192 434" stroke="#FBE6B1" stroke-width="4" stroke-miterlimit="10"/>
<path d="M812.752 407.28C852.472 407.28 878.992 375.68 936.772 388.1C978.702 397.11 1008.32 422.2 1047.29 419.37" stroke="#FBE6B1" stroke-width="4" stroke-miterlimit="10"/>
<path d="M740.473 360.37C764.543 360.63 780.353 347.96 836.823 382.32" stroke="#FBE6B1" stroke-width="4" stroke-miterlimit="10"/>
<path d="M650.873 365.81C663.763 363.27 675.693 363.27 685.513 375.36" stroke="#FBE6B1" stroke-width="4" stroke-miterlimit="10"/>
<path d="M384.531 460.58C410.251 431.97 450.621 431.25 468.111 435.18" stroke="#FBE6B1" stroke-width="4" stroke-miterlimit="10"/>
<path d="M210.441 487.14C307.171 435.19 337.311 506.34 422.771 504.08C460.131 503.09 496.911 414.86 596.301 461.71" stroke="#FBE6B1" stroke-width="4" stroke-miterlimit="10"/>
<path d="M393.781 407.28C433.501 407.28 460.021 375.68 517.801 388.1C559.731 397.11 589.351 422.2 628.321 419.37" stroke="#FBE6B1" stroke-width="4" stroke-miterlimit="10"/>
<path d="M497.281 358.3C531.921 349.72 583.491 366.28 616.621 394.14" stroke="#FBE6B1" stroke-width="4" stroke-miterlimit="10"/>
<path d="M594.021 224.57C619.741 195.96 660.111 195.24 677.601 199.17" stroke="#FBE6B1" stroke-width="4" stroke-miterlimit="10"/>
<path d="M419.922 251.12C516.652 199.17 546.792 270.32 632.252 268.06C669.612 267.07 706.392 178.84 805.782 225.69" stroke="#FBE6B1" stroke-width="4" stroke-miterlimit="10"/>
<path d="M440.633 219.39C477.343 196.89 504.913 201.87 536.633 206.97" stroke="#FBE6B1" stroke-width="4" stroke-miterlimit="10"/>
<path d="M461.271 177.69C511.481 161.95 547.471 174.43 570.701 197.99" stroke="#FBE6B1" stroke-width="4" stroke-miterlimit="10"/>
<path d="M603.262 171.27C642.982 171.27 669.502 139.67 727.282 152.09C769.212 161.1 798.832 186.19 837.802 183.36" stroke="#FBE6B1" stroke-width="4" stroke-miterlimit="10"/>
<path d="M454.281 265.54C467.831 254.27 485.341 254.27 497.761 258.84" stroke="#FBE6B1" stroke-width="4" stroke-miterlimit="10"/>
<path d="M726.162 266.2C737.152 257.92 746.302 251.52 766.442 257.92" stroke="#FBE6B1" stroke-width="4" stroke-miterlimit="10"/>
<path d="M530.982 302.32C583.852 294.31 593.282 325.24 648.792 325.36C706.912 325.49 681.942 271.99 789.242 321.12" stroke="#FBE6B1" stroke-width="4" stroke-miterlimit="10"/>
<path d="M530.982 124.35C555.052 124.61 570.862 111.94 627.332 146.3" stroke="#FBE6B1" stroke-width="4" stroke-miterlimit="10"/>
<path d="M706.771 122.28C741.411 113.7 792.982 130.26 826.112 158.12" stroke="#FBE6B1" stroke-width="4" stroke-miterlimit="10"/>
<path d="M433.102 315.56C471.252 302.49 496.942 340.08 518.942 332.43" stroke="#FBE6B1" stroke-width="4" stroke-miterlimit="10"/>
<path d="M441.383 129.79C454.273 127.25 466.203 127.25 476.023 139.34" stroke="#FBE6B1" stroke-width="4" stroke-miterlimit="10"/>
<path d="M782.441 290.73C795.481 283.16 815.381 291.48 826.391 304.9" stroke="#FBE6B1" stroke-width="4" stroke-miterlimit="10"/>
<path d="M713.223 329.3C729.153 321.75 746.103 326.1 757.003 333.61" stroke="#FBE6B1" stroke-width="4" stroke-miterlimit="10"/>
<path d="M629.412 15.1099C726.142 -36.8401 756.282 34.3099 841.742 32.0499C879.102 31.0599 915.882 -57.1701 1015.27 -10.3201" stroke="#FBE6B1" stroke-width="4" stroke-miterlimit="10"/>
<path d="M663.762 29.53C677.312 18.26 694.822 18.26 707.242 22.83" stroke="#FBE6B1" stroke-width="4" stroke-miterlimit="10"/>
<path d="M740.473 66.3102C793.343 58.3002 802.773 89.2301 858.283 89.3501C916.403 89.4801 891.433 35.9801 998.733 85.1101" stroke="#FBE6B1" stroke-width="4" stroke-miterlimit="10"/>
<path d="M642.582 79.5498C680.732 66.4798 706.422 104.07 728.422 96.4198" stroke="#FBE6B1" stroke-width="4" stroke-miterlimit="10"/>
<path d="M210.441 15.1099C307.171 -36.8401 337.311 34.3099 422.771 32.0499C460.131 31.0599 496.911 -57.1701 596.301 -10.3201" stroke="#FBE6B1" stroke-width="4" stroke-miterlimit="10"/>
<path d="M516.672 30.19C527.662 21.91 536.812 15.5099 556.952 21.9099" stroke="#FBE6B1" stroke-width="4" stroke-miterlimit="10"/>
<path d="M321.492 66.3102C374.362 58.3002 383.792 89.2301 439.302 89.3501C497.422 89.4801 472.452 35.9801 579.752 85.1101" stroke="#FBE6B1" stroke-width="4" stroke-miterlimit="10"/>
<path d="M572.951 54.72C585.991 47.15 605.891 55.47 616.901 68.89" stroke="#FBE6B1" stroke-width="4" stroke-miterlimit="10"/>
<path d="M503.73 93.2897C519.66 85.7397 536.61 90.0897 547.51 97.5997" stroke="#FBE6B1" stroke-width="4" stroke-miterlimit="10"/>
</g>
<mask id="mask8_5736_2636" style="mask-type:luminance" maskUnits="userSpaceOnUse" x="418" y="472" width="420" height="473">
<path d="M837.951 472.03H418.98V944.06H837.951V472.03Z" fill="white"/>
</mask>
<g mask="url(#mask8_5736_2636)">
<path d="M629.412 487.14C726.142 435.19 756.282 506.34 841.742 504.08C879.102 503.09 915.882 414.86 1015.27 461.71" stroke="#FBE6B1" stroke-width="4" stroke-miterlimit="10"/>
<path d="M210.441 487.14C307.171 435.19 337.311 506.34 422.771 504.08C460.131 503.09 496.911 414.86 596.301 461.71" stroke="#FBE6B1" stroke-width="4" stroke-miterlimit="10"/>
</g>
<mask id="mask9_5736_2636" style="mask-type:luminance" maskUnits="userSpaceOnUse" x="0" y="0" width="419" height="473">
<path d="M418.97 0H0V472.03H418.97V0Z" fill="white"/>
</mask>
<g mask="url(#mask9_5736_2636)">
<path d="M384.531 460.58C410.251 431.97 450.621 431.25 468.111 435.18" stroke="#FBE6B1" stroke-width="4" stroke-miterlimit="10"/>
<path d="M210.441 487.14C307.171 435.19 337.311 506.34 422.771 504.08C460.131 503.09 496.911 414.86 596.301 461.71" stroke="#FBE6B1" stroke-width="4" stroke-miterlimit="10"/>
<path d="M231.141 455.41C267.851 432.91 295.421 437.89 327.141 442.99" stroke="#FBE6B1" stroke-width="4" stroke-miterlimit="10"/>
<path d="M251.791 413.7C302.001 397.96 337.991 410.44 361.221 434" stroke="#FBE6B1" stroke-width="4" stroke-miterlimit="10"/>
<path d="M393.781 407.28C433.501 407.28 460.021 375.68 517.801 388.1C559.731 397.11 589.351 422.2 628.321 419.37" stroke="#FBE6B1" stroke-width="4" stroke-miterlimit="10"/>
<path d="M321.492 360.37C345.562 360.63 361.372 347.96 417.842 382.32" stroke="#FBE6B1" stroke-width="4" stroke-miterlimit="10"/>
<path d="M231.891 365.81C244.781 363.27 256.711 363.27 266.531 375.36" stroke="#FBE6B1" stroke-width="4" stroke-miterlimit="10"/>
<path d="M-34.4395 460.58C-8.71945 431.97 31.6505 431.25 49.1405 435.18" stroke="#FBE6B1" stroke-width="4" stroke-miterlimit="10"/>
<path d="M-208.539 487.14C-111.809 435.19 -81.6691 506.34 3.79094 504.08C41.1509 503.09 77.931 414.86 177.321 461.71" stroke="#FBE6B1" stroke-width="4" stroke-miterlimit="10"/>
<path d="M-25.1992 407.28C14.5208 407.28 41.0408 375.68 98.8208 388.1C140.751 397.11 170.371 422.2 209.341 419.37" stroke="#FBE6B1" stroke-width="4" stroke-miterlimit="10"/>
<path d="M78.3105 358.3C112.951 349.72 164.521 366.28 197.651 394.14" stroke="#FBE6B1" stroke-width="4" stroke-miterlimit="10"/>
<path d="M175.041 224.57C200.761 195.96 241.131 195.24 258.621 199.17" stroke="#FBE6B1" stroke-width="4" stroke-miterlimit="10"/>
<path d="M0.951172 251.12C97.6812 199.17 127.821 270.32 213.281 268.06C250.641 267.07 287.421 178.84 386.811 225.69" stroke="#FBE6B1" stroke-width="4" stroke-miterlimit="10"/>
<path d="M21.6621 219.39C58.3721 196.89 85.9421 201.87 117.662 206.97" stroke="#FBE6B1" stroke-width="4" stroke-miterlimit="10"/>
<path d="M42.3008 177.69C92.5108 161.95 128.501 174.43 151.731 197.99" stroke="#FBE6B1" stroke-width="4" stroke-miterlimit="10"/>
<path d="M184.291 171.27C224.011 171.27 250.531 139.67 308.311 152.09C350.241 161.1 379.861 186.19 418.831 183.36" stroke="#FBE6B1" stroke-width="4" stroke-miterlimit="10"/>
<path d="M35.3008 265.54C48.8508 254.27 66.3608 254.27 78.7808 258.84" stroke="#FBE6B1" stroke-width="4" stroke-miterlimit="10"/>
<path d="M307.191 266.2C318.181 257.92 327.331 251.52 347.471 257.92" stroke="#FBE6B1" stroke-width="4" stroke-miterlimit="10"/>
<path d="M112.012 302.32C164.882 294.31 174.312 325.24 229.822 325.36C287.942 325.49 262.972 271.99 370.272 321.12" stroke="#FBE6B1" stroke-width="4" stroke-miterlimit="10"/>
<path d="M112.012 124.35C136.082 124.61 151.892 111.94 208.362 146.3" stroke="#FBE6B1" stroke-width="4" stroke-miterlimit="10"/>
<path d="M287.801 122.28C322.441 113.7 374.011 130.26 407.141 158.12" stroke="#FBE6B1" stroke-width="4" stroke-miterlimit="10"/>
<path d="M14.1309 315.56C52.2809 302.49 77.9709 340.08 99.9709 332.43" stroke="#FBE6B1" stroke-width="4" stroke-miterlimit="10"/>
<path d="M22.4121 129.79C35.3021 127.25 47.2321 127.25 57.0521 139.34" stroke="#FBE6B1" stroke-width="4" stroke-miterlimit="10"/>
<path d="M363.471 290.73C376.511 283.16 396.411 291.48 407.421 304.9" stroke="#FBE6B1" stroke-width="4" stroke-miterlimit="10"/>
<path d="M294.24 329.3C310.17 321.75 327.12 326.1 338.02 333.61" stroke="#FBE6B1" stroke-width="4" stroke-miterlimit="10"/>
<path d="M210.441 15.1099C307.171 -36.8401 337.311 34.3099 422.771 32.0499C460.131 31.0599 496.911 -57.1701 596.301 -10.3201" stroke="#FBE6B1" stroke-width="4" stroke-miterlimit="10"/>
<path d="M244.791 29.53C258.341 18.26 275.851 18.26 288.271 22.83" stroke="#FBE6B1" stroke-width="4" stroke-miterlimit="10"/>
<path d="M321.492 66.3102C374.362 58.3002 383.792 89.2301 439.302 89.3501C497.422 89.4801 472.452 35.9801 579.752 85.1101" stroke="#FBE6B1" stroke-width="4" stroke-miterlimit="10"/>
<path d="M223.611 79.5498C261.761 66.4798 287.451 104.07 309.451 96.4198" stroke="#FBE6B1" stroke-width="4" stroke-miterlimit="10"/>
<path d="M-208.539 15.1099C-111.809 -36.8401 -81.6691 34.3099 3.79094 32.0499C41.1509 31.0599 77.931 -57.1701 177.321 -10.3201" stroke="#FBE6B1" stroke-width="4" stroke-miterlimit="10"/>
<path d="M97.7012 30.19C108.691 21.91 117.841 15.5099 137.981 21.9099" stroke="#FBE6B1" stroke-width="4" stroke-miterlimit="10"/>
<path d="M-97.4785 66.3102C-44.6085 58.3002 -35.1785 89.2301 20.3315 89.3501C78.4515 89.4801 53.4815 35.9801 160.781 85.1101" stroke="#FBE6B1" stroke-width="4" stroke-miterlimit="10"/>
<path d="M153.98 54.72C167.02 47.15 186.92 55.47 197.93 68.89" stroke="#FBE6B1" stroke-width="4" stroke-miterlimit="10"/>
<path d="M84.7617 93.2897C100.692 85.7397 117.642 90.0897 128.542 97.5997" stroke="#FBE6B1" stroke-width="4" stroke-miterlimit="10"/>
</g>
<mask id="mask10_5736_2636" style="mask-type:luminance" maskUnits="userSpaceOnUse" x="0" y="472" width="419" height="473">
<path d="M418.97 472.03H0V944.06H418.97V472.03Z" fill="white"/>
</mask>
<g mask="url(#mask10_5736_2636)">
<path d="M210.441 487.14C307.171 435.19 337.311 506.34 422.771 504.08C460.131 503.09 496.911 414.86 596.301 461.71" stroke="#FBE6B1" stroke-width="4" stroke-miterlimit="10"/>
<path d="M-208.539 487.14C-111.809 435.19 -81.6691 506.34 3.79094 504.08C41.1509 503.09 77.931 414.86 177.321 461.71" stroke="#FBE6B1" stroke-width="4" stroke-miterlimit="10"/>
</g>
</g>
</svg>
