<svg width="1920" height="968" viewBox="0 0 1920 968" fill="none" xmlns="http://www.w3.org/2000/svg">
<path d="M241.5 78.5701C146.7 76.9474 25.6667 26.8472 -23 2V968H1944V66.4C1932.33 59.4698 1868 39.3216 1704 14.1701C1499 -17.2693 1319 45.6095 1157 66.4C995 87.1906 811 2 663.5 2C516 2 360 80.5984 241.5 78.5701Z" fill="white" stroke="#9FA4D9" stroke-width="4" stroke-linecap="round" stroke-linejoin="round"/>
<path d="M-74 38C-25.3333 62.8987 95.7 113.103 190.5 114.729C309 116.761 465 38 612.5 38C760 38 944 123.367 1106 102.533C1268 81.6997 1448 18.6908 1653 50.1953C1817 75.3988 2088 147.467 1995.5 127" stroke="#9FA4D9" stroke-width="4" stroke-linecap="round" stroke-linejoin="round"/>
<path d="M-16.5 78.5C32.1667 103.399 274.7 179.103 369.5 180.729C488 182.761 644 104 791.5 104C939 104 1123 189.367 1285 168.533C1447 147.7 1627 84.6908 1832 116.195C1996 141.399 2267 213.467 2174.5 193" stroke="#9FA4D9" stroke-width="4" stroke-linecap="round" stroke-linejoin="round"/>
<path d="M-99 128C-50.3333 152.899 192.2 228.603 287 230.229C405.5 232.261 561.5 153.5 709 153.5C856.5 153.5 1040.5 238.867 1202.5 218.033C1364.5 197.2 1544.5 134.191 1749.5 165.695C1913.5 190.899 2184.5 262.967 2092 242.5" stroke="#9FA4D9" stroke-width="4" stroke-linecap="round" stroke-linejoin="round"/>
</svg>
