<?xml version="1.0" encoding="UTF-8"?>
<svg id="Layer_10" data-name="Layer 10" xmlns="http://www.w3.org/2000/svg" viewBox="0 0 2513.83 2632.23">
  <defs>
    <style>
      .cls-1 {
        fill: none;
        stroke: #c5c8e8;
        stroke-miterlimit: 10;
        stroke-width: 4px;
      }
    </style>
  </defs>
  <g>
    <path class="cls-1" d="m1216.87,1104.44c0,26.17-21.22,47.39-47.39,47.39s-47.39-21.22-47.39-47.39"/>
    <path class="cls-1" d="m1250.85,1104.44c0,44.93-36.43,81.36-81.36,81.36s-81.36-36.43-81.36-81.36"/>
    <path class="cls-1" d="m1284.82,1104.44c0,63.7-51.64,115.33-115.33,115.33s-115.33-51.64-115.33-115.33"/>
    <path class="cls-1" d="m1318.79,1104.44c0,82.46-66.85,149.3-149.3,149.3s-149.3-66.85-149.3-149.3"/>
    <path class="cls-1" d="m1352.76,1104.44c0,101.22-82.05,183.27-183.27,183.27s-183.27-82.05-183.27-183.27"/>
    <path class="cls-1" d="m1386.73,1104.44c0,119.98-97.26,217.25-217.25,217.25s-217.25-97.26-217.25-217.25"/>
    <path class="cls-1" d="m1420.7,1104.44c0,138.74-112.47,251.22-251.22,251.22s-251.22-112.47-251.22-251.22"/>
    <path class="cls-1" d="m1454.67,1104.44c0,157.51-127.68,285.19-285.19,285.19s-285.19-127.68-285.19-285.19"/>
    <path class="cls-1" d="m1488.65,1104.44c0,176.27-142.89,319.16-319.16,319.16s-319.16-142.89-319.16-319.16"/>
    <path class="cls-1" d="m1522.62,1104.44c0,195.03-158.1,353.13-353.13,353.13s-353.13-158.1-353.13-353.13"/>
    <path class="cls-1" d="m1556.59,1104.44c0,213.79-173.31,387.1-387.1,387.1s-387.1-173.31-387.1-387.1"/>
    <path class="cls-1" d="m1590.56,1104.44c0,232.55-188.52,421.07-421.07,421.07s-421.07-188.52-421.07-421.07"/>
    <path class="cls-1" d="m1624.53,1104.44c0,251.32-203.73,455.05-455.05,455.05s-455.05-203.73-455.05-455.05"/>
    <path class="cls-1" d="m1658.5,1104.44c0,270.08-218.94,489.02-489.02,489.02s-489.02-218.94-489.02-489.02"/>
    <path class="cls-1" d="m1692.48,1104.44c0,288.84-234.15,522.99-522.99,522.99s-522.99-234.15-522.99-522.99"/>
    <path class="cls-1" d="m1726.45,1104.44c0,307.6-249.36,556.96-556.96,556.96s-556.96-249.36-556.96-556.96"/>
    <path class="cls-1" d="m1760.42,1104.44c0,326.36-264.57,590.93-590.93,590.93s-590.93-264.57-590.93-590.93"/>
    <path class="cls-1" d="m1794.39,1104.44c0,345.12-279.78,624.9-624.9,624.9s-624.9-279.78-624.9-624.9"/>
    <path class="cls-1" d="m1828.36,1104.44c0,363.89-294.99,658.88-658.88,658.88s-658.88-294.99-658.88-658.88"/>
    <path class="cls-1" d="m1862.33,1104.44c0,382.65-310.2,692.85-692.85,692.85s-692.85-310.2-692.85-692.85"/>
    <path class="cls-1" d="m1896.3,1104.44c0,401.41-325.41,726.82-726.82,726.82s-726.82-325.41-726.82-726.82"/>
    <path class="cls-1" d="m1930.28,1104.44c0,420.17-340.62,760.79-760.79,760.79s-760.79-340.62-760.79-760.79"/>
    <path class="cls-1" d="m1964.25,1104.44c0,438.93-355.83,794.76-794.76,794.76s-794.76-355.83-794.76-794.76"/>
    <path class="cls-1" d="m1998.22,1104.44c0,457.7-371.04,828.73-828.73,828.73s-828.73-371.04-828.73-828.73"/>
    <path class="cls-1" d="m2032.19,1104.44c0,476.46-386.25,862.7-862.7,862.7s-862.7-386.25-862.7-862.7"/>
    <path class="cls-1" d="m2066.16,1104.44c0,495.22-401.46,896.68-896.68,896.68s-896.68-401.46-896.68-896.68"/>
    <path class="cls-1" d="m2100.13,1104.44c0,513.98-416.67,930.65-930.65,930.65S238.84,1618.42,238.84,1104.44"/>
  </g>
  <g>
    <path class="cls-1" d="m1156.07,1104.44c0-26.17,21.22-47.39,47.39-47.39s47.39,21.22,47.39,47.39"/>
    <path class="cls-1" d="m1122.1,1104.44c0-44.93,36.43-81.36,81.36-81.36s81.36,36.43,81.36,81.36"/>
    <path class="cls-1" d="m1088.13,1104.44c0-63.7,51.64-115.33,115.33-115.33s115.33,51.64,115.33,115.33"/>
    <path class="cls-1" d="m1054.16,1104.44c0-82.46,66.85-149.3,149.3-149.3s149.3,66.85,149.3,149.3"/>
    <path class="cls-1" d="m1020.18,1104.44c0-101.22,82.05-183.27,183.27-183.27s183.27,82.05,183.27,183.27"/>
    <path class="cls-1" d="m986.21,1104.44c0-119.98,97.26-217.25,217.25-217.25s217.25,97.26,217.25,217.25"/>
    <path class="cls-1" d="m952.24,1104.44c0-138.74,112.47-251.22,251.22-251.22s251.22,112.47,251.22,251.22"/>
    <path class="cls-1" d="m918.27,1104.44c0-157.51,127.68-285.19,285.19-285.19s285.19,127.68,285.19,285.19"/>
    <path class="cls-1" d="m884.3,1104.44c0-176.27,142.89-319.16,319.16-319.16s319.16,142.89,319.16,319.16"/>
    <path class="cls-1" d="m850.33,1104.44c0-195.03,158.1-353.13,353.13-353.13s353.13,158.1,353.13,353.13"/>
    <path class="cls-1" d="m816.35,1104.44c0-213.79,173.31-387.1,387.1-387.1s387.1,173.31,387.1,387.1"/>
    <path class="cls-1" d="m782.38,1104.44c0-232.55,188.52-421.07,421.07-421.07s421.07,188.52,421.07,421.07"/>
    <path class="cls-1" d="m748.41,1104.44c0-251.32,203.73-455.05,455.05-455.05s455.05,203.73,455.05,455.05"/>
    <path class="cls-1" d="m714.44,1104.44c0-270.08,218.94-489.02,489.02-489.02s489.02,218.94,489.02,489.02"/>
    <path class="cls-1" d="m680.47,1104.44c0-288.84,234.15-522.99,522.99-522.99s522.99,234.15,522.99,522.99"/>
    <path class="cls-1" d="m646.5,1104.44c0-307.6,249.36-556.96,556.96-556.96s556.96,249.36,556.96,556.96"/>
    <path class="cls-1" d="m612.53,1104.44c0-326.36,264.57-590.93,590.93-590.93s590.93,264.57,590.93,590.93"/>
    <path class="cls-1" d="m578.55,1104.44c0-345.12,279.78-624.9,624.9-624.9s624.9,279.78,624.9,624.9"/>
    <path class="cls-1" d="m544.58,1104.44c0-363.89,294.99-658.88,658.88-658.88s658.88,294.99,658.88,658.88"/>
    <path class="cls-1" d="m510.61,1104.44c0-382.65,310.2-692.85,692.85-692.85s692.85,310.2,692.85,692.85"/>
    <path class="cls-1" d="m476.64,1104.44c0-401.41,325.41-726.82,726.82-726.82s726.82,325.41,726.82,726.82"/>
    <path class="cls-1" d="m442.67,1104.44c0-420.17,340.62-760.79,760.79-760.79s760.79,340.62,760.79,760.79"/>
    <path class="cls-1" d="m408.7,1104.44c0-438.93,355.83-794.76,794.76-794.76s794.76,355.83,794.76,794.76"/>
    <path class="cls-1" d="m374.72,1104.44c0-457.7,371.04-828.73,828.73-828.73s828.73,371.04,828.73,828.73"/>
    <path class="cls-1" d="m340.75,1104.44c0-476.46,386.25-862.7,862.7-862.7s862.7,386.25,862.7,862.7"/>
    <path class="cls-1" d="m306.78,1104.44c0-495.22,401.46-896.68,896.68-896.68s896.68,401.46,896.68,896.68"/>
    <path class="cls-1" d="m272.81,1104.44c0-513.98,416.67-930.65,930.65-930.65s930.65,416.67,930.65,930.65"/>
  </g>
</svg>