<svg width="1920" height="141" viewBox="0 0 1920 141" fill="none" xmlns="http://www.w3.org/2000/svg">
<path d="M-109 71.8904C-1.14 169.58 44.22 130.24 115.47 96.4504C149.65 80.2404 230.95 75.6504 266.25 83.7404C293.12 89.9004 336.26 132.37 363.66 135.41C444.31 144.37 502.98 79.2704 582.95 65.4804C609.87 60.8404 732.13 56.4504 774.48 76.1204C818.3 96.4704 866.76 129.75 903.33 135.13C950.51 142.08 1052.97 121.56 1093.82 100.64C1136.74 78.6604 1246.29 53.8104 1298.24 98.8404C1327.56 124.26 1431.51 155.08 1469.53 128.73C1497.27 109.5 1547.88 74.1104 1577.2 68.1204C1591.75 65.1404 1626.61 60.0304 1648.73 72.6404C1666.43 82.7304 1686.08 98.4604 1702.85 105.77C1747.02 125.03 1871.75 86.5704 1909.77 59.0904C1933.1 42.2304 1946.52 112.55 2007.5 98.2404" stroke="#D6D9F9" stroke-width="4" stroke-miterlimit="10"/>
<path d="M-60.0078 39.4606C-24.2878 35.3706 9.05219 95.7106 44.6022 102.761C86.7922 111.141 125.792 82.3606 164.462 64.0206C198.642 47.8106 279.942 43.2206 315.242 51.3106C342.112 57.4706 383.702 87.4706 411.102 90.5206C491.752 99.4806 576.172 44.4106 656.142 30.6206C683.062 25.9806 822.982 19.7606 856.652 39.1406C897.872 62.8606 913.222 92.2506 949.782 97.6406C996.962 104.591 1085.84 86.8106 1138.25 67.3806C1179.34 52.1406 1294.86 15.5706 1346.81 60.6006C1376.13 86.0206 1483.56 104.181 1521.59 77.8206C1549.33 58.5906 1596.89 41.6906 1626.2 35.7006C1640.75 32.7206 1682.53 25.3106 1702.57 37.6406C1719.93 48.3106 1734.95 66.3306 1751.84 73.3506C1813.09 98.8006 1916.4 31.6206 1954.43 4.13061C1977.76 -12.7294 1995.51 80.1206 2056.5 65.8206" stroke="#D6D9F9" stroke-width="4" stroke-miterlimit="10"/>
</svg>
