<svg width="1920" height="333" viewBox="0 0 1920 333" fill="none" xmlns="http://www.w3.org/2000/svg">
<path d="M-109 263.89C-1.14 361.58 44.22 322.24 115.47 288.45C149.65 272.24 230.95 267.65 266.25 275.74C293.12 281.9 336.26 324.37 363.66 327.41C444.31 336.37 502.98 271.27 582.95 257.48C609.87 252.84 732.13 248.45 774.48 268.12C818.3 288.47 866.76 321.75 903.33 327.13C950.51 334.08 1052.97 313.56 1093.82 292.64C1136.74 270.66 1246.29 245.81 1298.24 290.84C1327.56 316.26 1431.51 347.08 1469.53 320.73C1497.27 301.5 1547.88 266.11 1577.2 260.12C1591.75 257.14 1626.61 252.03 1648.73 264.64C1666.43 274.73 1686.08 290.46 1702.85 297.77C1747.02 317.03 1871.75 278.57 1909.77 251.09C1933.1 234.23 1946.52 304.55 2007.5 290.24" stroke="#D6D9F9" stroke-width="4" stroke-miterlimit="10"/>
<path d="M-60.0098 231.461C-24.2898 227.371 9.05024 287.711 44.6002 294.761C86.7902 303.141 125.79 274.361 164.46 256.021C198.64 239.811 279.94 235.221 315.24 243.311C342.11 249.471 383.7 279.471 411.1 282.521C491.75 291.481 576.17 236.411 656.14 222.621C683.06 217.981 822.98 211.761 856.65 231.141C897.87 254.861 913.22 284.251 949.78 289.641C996.96 296.591 1085.84 278.811 1138.25 259.381C1179.34 244.141 1294.86 207.571 1346.81 252.601C1376.13 278.021 1483.56 296.181 1521.59 269.821C1549.33 250.591 1596.89 233.691 1626.2 227.701C1640.75 224.721 1682.53 217.311 1702.57 229.641C1719.93 240.311 1734.95 258.331 1751.84 265.351C1813.09 290.801 1916.4 223.621 1954.43 196.131C1977.76 179.271 1995.51 272.121 2056.5 257.821" stroke="#D6D9F9" stroke-width="4" stroke-miterlimit="10"/>
<path d="M-68.3398 234.901C-68.3398 234.901 -16.0898 206.301 6.20016 207.041C28.4902 207.781 50.2501 229.631 81.8701 251.091C117.62 275.351 177.63 241.811 213.63 224.741C247.81 208.531 329.73 200.651 365.02 208.741C391.89 214.901 456.84 258.981 484.31 261.261C538.9 265.781 625.95 201.841 705.92 188.051C732.84 183.411 873.41 172.991 907.09 192.371C948.31 216.091 969.16 244.961 1005.73 250.351C1052.91 257.301 1151.05 252.991 1201.12 228.141C1238.6 209.541 1341.25 177.251 1396.6 218.031C1428.98 241.881 1513.96 265.031 1571.38 235.251C1606.04 217.271 1639.34 206.021 1669.26 206.021C1693.82 206.021 1710.86 218.461 1732.51 236.511C1748.16 249.561 1801.12 251.481 1819.19 245.171C1881.81 223.291 1946.25 161.401 2004.23 161.551C2033.01 161.621 2045.31 237.541 2106.3 223.241" stroke="#D6D9F9" stroke-width="4" stroke-miterlimit="10"/>
<path d="M-64.5703 211.521C-64.5703 211.521 -14.3903 187.481 7.89969 188.231C30.1897 188.981 54.0197 216.781 85.6397 238.241C121.39 262.501 181.4 228.961 217.4 211.891C251.58 195.681 340.22 185.991 375.52 194.091C402.39 200.251 460.61 246.141 488.09 248.411C542.68 252.931 629.73 188.991 709.7 175.201C736.62 170.561 912 139.8 948.5 157.5C985 175.201 976.5 206 1019.5 226C1062.5 246 1154.82 240.131 1204.89 215.281C1242.37 196.681 1345.51 161.761 1401.41 201.791C1456.01 240.891 1533.91 243.351 1575.15 222.391C1607.62 205.891 1643.12 193.851 1673.03 193.161C1706.72 192.381 1712.93 213.051 1736.09 227.391C1753.41 238.121 1820.64 235.011 1837.6 226.131C1898.74 194.121 1934.87 135.381 1992.84 135.531C2021.62 135.601 2049.08 224.691 2110.07 210.381" stroke="#D6D9F9" stroke-width="4" stroke-miterlimit="10"/>
<path d="M-51.7812 196.881C-33.0312 184.891 -11.7612 174.061 10.5288 174.801C32.8188 175.541 54.7588 208.181 86.3788 229.631C122.129 253.891 181.379 209.141 217.389 192.061C251.569 175.851 343.599 163.181 378.899 171.271C405.769 177.431 473.52 227.23 501 229.5C555.59 234.02 634.53 158.29 714.5 144.5C741.42 139.86 961.14 105.05 1003.5 123C1047.29 141.56 1049.47 202.121 1095.5 210C1141.53 217.88 1163.48 218.901 1213.55 194.061C1251.03 175.461 1377.14 131.571 1435.29 168.261C1492.39 204.291 1532.77 220.751 1574.96 201.771C1608.84 186.521 1681.69 177.491 1711.39 178.881C1743.06 180.371 1755.85 197.171 1779.01 211.511C1796.33 222.241 1823.28 221.561 1840.24 212.681C1901.38 180.671 1937.51 121.931 1995.48 122.081C2024.26 122.151 2051.72 211.241 2112.71 196.931" stroke="#D6D9F9" stroke-width="4" stroke-miterlimit="10"/>
<path d="M-68.3398 154.341C-49.5898 142.351 -32.5198 129.841 -10.2198 129.491C37.8202 128.741 62.88 181.04 94.5 202.5C130.25 226.76 216.4 178.621 252.41 161.541C286.59 145.331 376.92 132.001 409.4 148.011C454.39 170.181 478.12 199.74 525 202.5C579.68 205.72 637 143 680 124C782.867 78.5475 1057 72.0004 1091.5 94.5003C1126 117 1129.5 167.39 1182 171C1212.61 173.1 1278.63 151.96 1308 139.5C1346.52 123.17 1393.71 85.3907 1451.85 122.081C1508.95 158.111 1554.26 185.341 1598.67 172.401C1635.94 161.541 1687.55 139.131 1717.26 135.511C1748.74 131.671 1778.62 168.101 1801.77 182.431C1819.09 193.161 1846.04 192.481 1863 183.601C1924.14 151.591 1960.27 92.8507 2018.24 93.0007C2047.02 93.0707 2074.48 182.161 2135.47 167.851" stroke="#D6D9F9" stroke-width="4" stroke-miterlimit="10"/>
<path d="M-64.541 99.3404C-45.791 87.3504 -28.721 74.8404 -6.42102 74.4904C41.619 73.7404 82.37 149.54 114 171C149.75 195.26 233.99 139.58 270 122.5C304.18 106.29 367.889 85.2404 400.369 101.25C445.359 123.42 464.499 155.46 519.519 155.46C591.549 155.46 663 66.5 743 54.5C823 42.5 994.322 47.0946 1091.5 67.0804C1165.5 82.2993 1164.47 127.2 1216.5 135C1244.37 139.18 1261 125.5 1307 103.5C1353 81.5 1389.45 38.0004 1455.65 67.0804C1517.46 94.2304 1574.24 135.5 1620.5 135.5C1666.76 135.5 1722 93.0004 1756.5 93.0004C1791 93.0004 1822.64 117.05 1849.41 122.08C1872.32 126.39 1900.1 121.88 1917.06 113C1978.2 80.9904 1964.08 37.8504 2022.05 38.0004C2050.83 38.0704 2078.29 127.16 2139.28 112.85" stroke="#D6D9F9" stroke-width="4" stroke-miterlimit="10"/>
<path d="M-72 63.3405C-53.25 51.3505 -36.18 38.8405 -13.88 38.4905C34.16 37.7405 74.911 113.54 106.541 135C142.291 159.26 226.531 103.58 262.541 86.5001C296.721 70.2901 360.43 49.2405 392.91 65.2505C437.9 87.4205 467.48 139.5 522.5 139.5C594.53 139.5 661 43.0805 741 31.0805C741 31.0805 1005.82 34.5144 1103 54.5001C1177 69.719 1174 106 1225 105.5C1276 105 1305 76.5001 1351 54.5001C1397 32.5001 1430.3 41.4201 1496.5 70.5001C1558.31 97.6501 1566.78 99.5005 1613.04 99.5005C1659.3 99.5005 1710 44.0001 1789.5 44.0001C1869 44.0001 1873.23 73.4701 1900 78.5001C1922.91 82.8101 1937.54 57.3801 1954.5 48.5001C2015.64 16.4901 1956.62 1.85052 2014.59 2.00052C2043.37 2.07052 2070.83 91.1605 2131.82 76.8505" stroke="#D6D9F9" stroke-width="4" stroke-miterlimit="10"/>
</svg>
