<svg width="1920" height="212" viewBox="0 0 1920 212" fill="none" xmlns="http://www.w3.org/2000/svg">
<path d="M-68.3398 154.341C-49.5898 142.351 -32.5198 129.841 -10.2198 129.491C37.8202 128.741 62.88 181.04 94.5 202.5C130.25 226.76 216.4 178.621 252.41 161.541C286.59 145.331 376.92 132.001 409.4 148.011C454.39 170.181 478.12 199.74 525 202.5C579.68 205.72 637 143 680 124C782.867 78.5475 1057 72.0004 1091.5 94.5003C1126 117 1129.5 167.39 1182 171C1212.61 173.1 1278.63 151.96 1308 139.5C1346.52 123.17 1393.71 85.3907 1451.85 122.081C1508.95 158.111 1554.26 185.341 1598.67 172.401C1635.94 161.541 1687.55 139.131 1717.26 135.511C1748.74 131.671 1778.62 168.101 1801.77 182.431C1819.09 193.161 1846.04 192.481 1863 183.601C1924.14 151.591 1960.27 92.8507 2018.24 93.0007C2047.02 93.0707 2074.48 182.161 2135.47 167.851" stroke="#D6D9F9" stroke-width="4" stroke-miterlimit="10"/>
<path d="M-64.541 99.3404C-45.791 87.3504 -28.721 74.8404 -6.42102 74.4904C41.619 73.7404 82.37 149.54 114 171C149.75 195.26 233.99 139.58 270 122.5C304.18 106.29 367.889 85.2404 400.369 101.25C445.359 123.42 464.499 155.46 519.519 155.46C591.549 155.46 663 66.5 743 54.5C823 42.5 994.322 47.0946 1091.5 67.0804C1165.5 82.2993 1164.47 127.2 1216.5 135C1244.37 139.18 1261 125.5 1307 103.5C1353 81.5 1389.45 38.0004 1455.65 67.0804C1517.46 94.2304 1574.24 135.5 1620.5 135.5C1666.76 135.5 1722 93.0004 1756.5 93.0004C1791 93.0004 1822.64 117.05 1849.41 122.08C1872.32 126.39 1900.1 121.88 1917.06 113C1978.2 80.9904 1964.08 37.8504 2022.05 38.0004C2050.83 38.0704 2078.29 127.16 2139.28 112.85" stroke="#D6D9F9" stroke-width="4" stroke-miterlimit="10"/>
<path d="M-72 63.3405C-53.25 51.3505 -36.18 38.8405 -13.88 38.4905C34.16 37.7405 74.911 113.54 106.541 135C142.291 159.26 226.531 103.58 262.541 86.5001C296.721 70.2901 360.43 49.2405 392.91 65.2505C437.9 87.4205 467.48 139.5 522.5 139.5C594.53 139.5 661 43.0805 741 31.0805C741 31.0805 1005.82 34.5144 1103 54.5001C1177 69.719 1174 106 1225 105.5C1276 105 1305 76.5001 1351 54.5001C1397 32.5001 1430.3 41.4201 1496.5 70.5001C1558.31 97.6501 1566.78 99.5005 1613.04 99.5005C1659.3 99.5005 1710 44.0001 1789.5 44.0001C1869 44.0001 1873.23 73.4701 1900 78.5001C1922.91 82.8101 1937.54 57.3801 1954.5 48.5001C2015.64 16.4901 1956.62 1.85052 2014.59 2.00052C2043.37 2.07052 2070.83 91.1605 2131.82 76.8505" stroke="#D6D9F9" stroke-width="4" stroke-miterlimit="10"/>
</svg>
