<svg width="1920" height="87" viewBox="0 0 1920 87" fill="none" xmlns="http://www.w3.org/2000/svg">
<path d="M-109 17.8904C-1.14 115.58 44.22 76.2404 115.47 42.4504C149.65 26.2404 230.95 21.6504 266.25 29.7404C293.12 35.9004 336.26 78.3704 363.66 81.4104C444.31 90.3704 502.98 25.2704 582.95 11.4804C609.87 6.84038 732.13 2.45036 774.48 22.1204C818.3 42.4704 866.76 75.7504 903.33 81.1304C950.51 88.0804 1052.97 67.5604 1093.82 46.6404C1136.74 24.6604 1246.29 -0.189606 1298.24 44.8404C1327.56 70.2604 1431.51 101.08 1469.53 74.7304C1497.27 55.5004 1547.88 20.1104 1577.2 14.1204C1591.75 11.1404 1626.61 6.03038 1648.73 18.6404C1666.43 28.7304 1686.08 44.4604 1702.85 51.7704C1747.02 71.0304 1871.75 32.5704 1909.77 5.09039C1933.1 -11.7696 1946.52 58.5504 2007.5 44.2404" stroke="#D6D9F9" stroke-width="4" stroke-miterlimit="10"/>
</svg>
