<svg width="1920" height="174" viewBox="0 0 1920 174" fill="none" xmlns="http://www.w3.org/2000/svg">
<path d="M-109 104.89C-1.14 202.58 44.22 163.24 115.47 129.45C149.65 113.24 230.95 108.65 266.25 116.74C293.12 122.9 336.26 165.37 363.66 168.41C444.31 177.37 502.98 112.27 582.95 98.4804C609.87 93.8404 732.13 89.4504 774.48 109.12C818.3 129.47 866.76 162.75 903.33 168.13C950.51 175.08 1052.97 154.56 1093.82 133.64C1136.74 111.66 1246.29 86.8104 1298.24 131.84C1327.56 157.26 1431.51 188.08 1469.53 161.73C1497.27 142.5 1547.88 107.11 1577.2 101.12C1591.75 98.1404 1626.61 93.0304 1648.73 105.64C1666.43 115.73 1686.08 131.46 1702.85 138.77C1747.02 158.03 1871.75 119.57 1909.77 92.0904C1933.1 75.2304 1946.52 145.55 2007.5 131.24" stroke="#D6D9F9" stroke-width="4" stroke-miterlimit="10"/>
<path d="M-60.0078 72.4606C-24.2878 68.3706 9.05219 128.711 44.6022 135.761C86.7922 144.141 125.792 115.361 164.462 97.0206C198.642 80.8106 279.942 76.2206 315.242 84.3106C342.112 90.4706 383.702 120.471 411.102 123.521C491.752 132.481 576.172 77.4106 656.142 63.6206C683.062 58.9806 822.982 52.7606 856.652 72.1406C897.872 95.8606 913.222 125.251 949.782 130.641C996.962 137.591 1085.84 119.811 1138.25 100.381C1179.34 85.1406 1294.86 48.5706 1346.81 93.6006C1376.13 119.021 1483.56 137.181 1521.59 110.821C1549.33 91.5906 1596.89 74.6906 1626.2 68.7006C1640.75 65.7206 1682.53 58.3106 1702.57 70.6406C1719.93 81.3106 1734.95 99.3306 1751.84 106.351C1813.09 131.801 1916.4 64.6206 1954.43 37.1306C1977.76 20.2706 1995.51 113.121 2056.5 98.8206" stroke="#D6D9F9" stroke-width="4" stroke-miterlimit="10"/>
<path d="M-68.3398 75.9006C-68.3398 75.9006 -16.0898 47.3006 6.20016 48.0406C28.4902 48.7806 50.2501 70.6306 81.8701 92.0906C117.62 116.351 177.63 82.8106 213.63 65.7406C247.81 49.5306 329.73 41.6506 365.02 49.7406C391.89 55.9006 456.84 99.9806 484.31 102.261C538.9 106.781 625.95 42.8406 705.92 29.0506C732.84 24.4106 873.41 13.9906 907.09 33.3706C948.31 57.0906 969.16 85.9606 1005.73 91.3506C1052.91 98.3006 1151.05 93.9906 1201.12 69.1406C1238.6 50.5406 1341.25 18.2506 1396.6 59.0306C1428.98 82.8806 1513.96 106.031 1571.38 76.2506C1606.04 58.2706 1639.34 47.0206 1669.26 47.0206C1693.82 47.0206 1710.86 59.4606 1732.51 77.5106C1748.16 90.5606 1801.12 92.4806 1819.19 86.1706C1881.81 64.2906 1946.25 2.40057 2004.23 2.55057C2033.01 2.62057 2045.31 78.5406 2106.3 64.2406" stroke="#D6D9F9" stroke-width="4" stroke-miterlimit="10"/>
</svg>
