<svg width="1920" height="200" viewBox="0 0 1920 200" fill="none" xmlns="http://www.w3.org/2000/svg">
<path d="M-109 130.89C-1.14 228.58 44.22 189.24 115.47 155.45C149.65 139.24 230.95 134.65 266.25 142.74C293.12 148.9 336.26 191.37 363.66 194.41C444.31 203.37 502.98 138.27 582.95 124.48C609.87 119.84 732.13 115.45 774.48 135.12C818.3 155.47 866.76 188.75 903.33 194.13C950.51 201.08 1052.97 180.56 1093.82 159.64C1136.74 137.66 1246.29 112.81 1298.24 157.84C1327.56 183.26 1431.51 214.08 1469.53 187.73C1497.27 168.5 1547.88 133.11 1577.2 127.12C1591.75 124.14 1626.61 119.03 1648.73 131.64C1666.43 141.73 1686.08 157.46 1702.85 164.77C1747.02 184.03 1871.75 145.57 1909.77 118.09C1933.1 101.23 1946.52 171.55 2007.5 157.24" stroke="#D6D9F9" stroke-width="4" stroke-miterlimit="10"/>
<path d="M-60.0078 98.4606C-24.2878 94.3706 9.05219 154.711 44.6022 161.761C86.7922 170.141 125.792 141.361 164.462 123.021C198.642 106.811 279.942 102.221 315.242 110.311C342.112 116.471 383.702 146.471 411.102 149.521C491.752 158.481 576.172 103.411 656.142 89.6206C683.062 84.9806 822.982 78.7606 856.652 98.1406C897.872 121.861 913.222 151.251 949.782 156.641C996.962 163.591 1085.84 145.811 1138.25 126.381C1179.34 111.141 1294.86 74.5706 1346.81 119.601C1376.13 145.021 1483.56 163.181 1521.59 136.821C1549.33 117.591 1596.89 100.691 1626.2 94.7006C1640.75 91.7206 1682.53 84.3106 1702.57 96.6406C1719.93 107.311 1734.95 125.331 1751.84 132.351C1813.09 157.801 1916.4 90.6206 1954.43 63.1306C1977.76 46.2706 1995.51 139.121 2056.5 124.821" stroke="#D6D9F9" stroke-width="4" stroke-miterlimit="10"/>
<path d="M-68.3398 101.901C-68.3398 101.901 -16.0898 73.3006 6.20016 74.0406C28.4902 74.7806 50.2501 96.6306 81.8701 118.091C117.62 142.351 177.63 108.811 213.63 91.7406C247.81 75.5306 329.73 67.6506 365.02 75.7406C391.89 81.9006 456.84 125.981 484.31 128.261C538.9 132.781 625.95 68.8406 705.92 55.0506C732.84 50.4106 873.41 39.9906 907.09 59.3706C948.31 83.0906 969.16 111.961 1005.73 117.351C1052.91 124.301 1151.05 119.991 1201.12 95.1406C1238.6 76.5406 1341.25 44.2506 1396.6 85.0306C1428.98 108.881 1513.96 132.031 1571.38 102.251C1606.04 84.2706 1639.34 73.0206 1669.26 73.0206C1693.82 73.0206 1710.86 85.4606 1732.51 103.511C1748.16 116.561 1801.12 118.481 1819.19 112.171C1881.81 90.2906 1946.25 28.4006 2004.23 28.5506C2033.01 28.6206 2045.31 104.541 2106.3 90.2406" stroke="#D6D9F9" stroke-width="4" stroke-miterlimit="10"/>
<path d="M-64.5703 78.5206C-64.5703 78.5206 -14.3903 54.4805 7.89969 55.2305C30.1897 55.9805 54.0197 83.7806 85.6397 105.241C121.39 129.501 181.4 95.9605 217.4 78.8905C251.58 62.6805 340.22 52.9906 375.52 61.0906C402.39 67.2506 460.61 113.141 488.09 115.411C542.68 119.931 629.73 55.9905 709.7 42.2005C736.62 37.5605 912 6.7997 948.5 24.5001C985 42.2005 976.5 73.0001 1019.5 93.0001C1062.5 113 1154.82 107.131 1204.89 82.2806C1242.37 63.6806 1345.51 28.7606 1401.41 68.7906C1456.01 107.891 1533.91 110.351 1575.15 89.3905C1607.62 72.8905 1643.12 60.8506 1673.03 60.1606C1706.72 59.3806 1712.93 80.0505 1736.09 94.3905C1753.41 105.121 1820.64 102.011 1837.6 93.1306C1898.74 61.1206 1934.87 2.38056 1992.84 2.53056C2021.62 2.60056 2049.08 91.6906 2110.07 77.3806" stroke="#D6D9F9" stroke-width="4" stroke-miterlimit="10"/>
</svg>
